<?xml version="1.0" encoding="utf-8"?>
<!-- Generator: Adobe Illustrator 27.5.0, SVG Export Plug-In . SVG Version: 6.00 Build 0)  -->
<svg version="1.1" xmlns="http://www.w3.org/2000/svg" xmlns:xlink="http://www.w3.org/1999/xlink" x="0px" y="0px"
	 viewBox="0 0 1000 1000" style="enable-background:new 0 0 1000 1000;" xml:space="preserve">
<g id="BG">
	<rect style="fill:#FFFFFF;" width="1000" height="1000"/>
	<rect style="fill:#FFFFFF;" width="1000" height="1000"/>
</g>
<g id="Object">
	<g>
		<path style="fill:#1A1A1A;" d="M200.672,547.59c2.941-0.39,5.881-0.876,8.799-1.413c0.813-0.923,1.678-1.794,2.582-2.628v-0.942
			c-3.86,0.473-7.717,0.96-11.549,1.633C200.551,545.357,200.607,546.473,200.672,547.59z"/>
		<path style="fill:#1A1A1A;" d="M336.872,433.135c0.004-0.003,0.007-0.005,0.011-0.009c0,0-0.014,0.002-0.019,0.003
			C336.864,433.13,336.869,433.133,336.872,433.135z"/>
		<path style="fill:#1A1A1A;" d="M335.929,433.34c-8.739,2.011-17.54,3.699-26.158,6.202c0.519,0.084,0.997,0.303,1.386,0.841
			c0.508-0.01,0.575,0.237,0.202,0.74c-0.165,0.799-0.254,1.603-0.268,2.415c4.823-1.177,9.649-2.344,14.482-3.464
			c-0.193-0.113-0.372-0.271-0.513-0.553c0.77-0.44,2.026-1.47,1.899,0.227c1.271-0.298,2.544-0.585,3.82-0.859
			c1.832-1.761,3.68-3.506,5.542-5.235l-0.493-0.091C335.856,433.48,335.894,433.413,335.929,433.34z"/>
		<path style="fill:#1A1A1A;" d="M308.07,440.028c-8.558,2.553-102.402,28.831-102.433,28.747
			c0.808,2.208,66.144-16.433,72.739-17.821c-0.336-0.023-0.493-0.375-0.85-1.244c1.013-0.533,1.561,0.003,1.97,0.858
			c-0.276,0.129-0.484,0.222-0.664,0.291c9.839-2.063,19.632-4.239,29.397-6.622C307.949,442.858,307.918,441.453,308.07,440.028z"
			/>
		<path style="fill:#1A1A1A;" d="M847.028,348.015c0.112,0.061-18.273,28.526-20.193,31.007
			c-62.996-7.137-125.618-7.675-188.678-1.613c0.25,0.555,0.449,1.135,0.669,1.704c-0.559,0.01-1.118,0.022-1.677,0.034
			c-0.794-0.167-1.278-0.68-1.453-1.535c-50.239,3.846-99.373,12.497-148.853,21.774c1.488,1.297,2.028,4.488,1.046,6.262
			c7.946-1.535,15.887-3.082,23.836-4.596c-0.008-0.799-0.672-5.18,1.464-5.217c1.228-0.022,0.716,2.004,0.497,2.605
			c0.959,0.587,1.921,1.167,2.909,1.685c49.194-9.364,98.16-19.565,148.247-22.826c0.414-0.439,1.092-0.55,1.734-0.683
			c-0.016,0.192-0.023,0.385-0.034,0.577c53.378-3.405,106.785-3.464,159.99,2.218c-14.354,18.431-27.618,37.584-40.323,57.137
			c-11.882,18.287-28.627,32.754-42.071,49.874c17.009-21.637,40.307-39.478,57.029-62.478
			C805.382,418.15,853.119,351.264,847.028,348.015z M582.039,386.844c-0.885-0.547-0.883-1.086,0.004-1.621
			C582.94,385.767,582.94,386.309,582.039,386.844z M660.722,376.561c0.007-0.244,0.012-0.487,0.017-0.733
			C661.434,376.089,661.354,376.331,660.722,376.561z M807.679,408.231c0.104-1.564,3.296-0.562,3.121-0.118
			C810.452,409.015,807.572,409.78,807.679,408.231z"/>
		<path style="fill:#1A1A1A;" d="M482.865,404.56c-1.219-1.863,2.275-2.494,0.297-4.48c-35.277,6.467-70.421,14.225-105.366,22.285
			c-3.314,2.886-6.71,5.689-10.125,8.471c0.613-0.131,1.229-0.264,1.845-0.395c0.084-0.309,0.336-0.283,0.65-0.457
			c0.145,0.067,0.253,0.153,0.349,0.242c32.801-7.049,65.417-14.853,98.418-20.927c-4.162-2.171-4.049-3.816,0.775-4.747
			c0.694,2.166,0.81,2.529,0.81,4.451c5.243-0.977,10.475-2.021,15.712-3.034c-0.44-0.304-0.895-0.583-1.367-0.837
			C484.25,404.815,483.603,404.59,482.865,404.56z M375.75,428.3c-0.715,0.444-1.41,0.4-2.082-0.133
			C373.554,426.529,377.004,427.626,375.75,428.3z M392.198,422.778C391.586,424.063,391.176,423.235,392.198,422.778
			c0.003-0.009,0.007-0.015,0.012-0.024c0.003,0.002,0.007,0.005,0.012,0.007l0.002,0.005
			C392.224,422.766,392.206,422.774,392.198,422.778z M453.488,409.851c-0.154-0.284-0.068-0.441,0.259-0.469
			C454.11,409.642,454.025,409.798,453.488,409.851z M457.743,408.751c-0.027,0.163-0.049,0.326-0.067,0.489
			c-1.98-0.266-2.858-1.101-2.632-2.511C456.218,405.246,457.776,408.858,457.743,408.751c0.622,0.089,1.243,0.183,1.865,0.276
			C458.986,408.934,458.365,408.84,457.743,408.751z M474.202,403.299c0.036-0.367-0.007-0.716-0.133-1.048
			c0.015,0.042,0.03,0.084,0.045,0.128v-0.002C474.274,402.695,474.323,403.003,474.202,403.299z"/>
		<path style="fill:#1A1A1A;" d="M201.375,552.896c1.347-0.173,2.689-0.37,4.029-0.587c0.639-1.364,1.375-2.622,2.201-3.787
			c-2.252,0.32-4.506,0.636-6.757,0.958C200.896,550.644,201.072,551.784,201.375,552.896z"/>
		<path style="fill:#1A1A1A;" d="M200.734,482.513c-0.107,7.002-1.881,14.214-1.867,21.292c0.118-0.034,0.235-0.069,0.354-0.104
			c0.785,0.242,1.224,0.834,1.554,1.54c-0.745,0.266-1.401,0.636-1.968,1.115c-0.587,7.916,0.193,14.357,1.037,22.141
			c1.45-0.2,2.893-0.422,4.359-0.664c1.57-14.082,2.262-31.301-1.397-44.748C202.095,482.945,201.395,482.772,200.734,482.513z"/>
		<path style="fill:#1A1A1A;" d="M200.956,478.744c-0.051,0.876-0.102,1.752-0.151,2.627c0.026-0.013,0.052-0.03,0.079-0.044
			c0.533,0.33,1.088,0.516,1.658,0.589C203.024,479.546,202.496,478.49,200.956,478.744z"/>
		<path style="fill:#1A1A1A;" d="M259.614,478.532c-15.579,4.255-31.459,9.143-47.562,10.904V516.6
			c13.269-4.615,27.274-7.271,40.87-10.741c-0.045-0.294,0.139-0.503,0.549-0.62c0.855-0.345,1.71-0.363,2.546-0.17
			c0.301-0.076,0.588-0.15,0.895-0.229c2.257-2.09,4.52-4.171,6.789-6.247c-2.752,0.79-38.681,10.833-39.439,8.575
			c-0.127-0.343,42.572-13.055,45.34-13.936c1.858-1.675,3.724-3.343,5.594-5.005c-11.825,3.41-24.131,5.318-35.877,8.682
			c-0.069,1.039-0.138,2.08-0.207,3.12c-0.688-0.007-1.375-0.013-2.063-0.02c0.118-1.125,0.237-2.25,0.356-3.375
			c-1.235-0.071-2.472-0.14-3.706-0.21c-0.254-3.996,6.663-4.566,8.627-2.068c-0.026,0.17-0.081,0.318-0.128,0.471
			c12.448-4.939,25.815-8.518,38.821-11.721c0.559-0.486,1.125-0.964,1.686-1.448c-0.791-0.118-1.66,0.227-2.545,0.526
			c-0.464-1.031-0.56-2.1-0.538-3.183c-3.22,0.911-34.385,10.953-35.37,8.072c-1.055-3.091,44.825-13.442,48.746-14.214
			c2.154-1.828,4.299-3.661,6.431-5.504c-12.03,3.249-23.974,6.851-35.997,10.135C263.832,479.052,260.415,479.628,259.614,478.532z
			 M220.886,508.415c-2.852,2.269-2.189-4.292-1.602-2.936C219.493,505.96,224.939,505.185,220.886,508.415z"/>
		<path style="fill:#1A1A1A;" d="M283.646,479.685c0.186,0.229,0.37,0.458,0.554,0.686c1.423-1.226,2.838-2.457,4.272-3.671
			c-2.683,0.627-5.34,1.338-7.998,2.061C281.249,479.644,282.183,480.202,283.646,479.685z"/>
		<path style="fill:#1A1A1A;" d="M212.053,526.307c0.048,0.019,0.092,0.037,0.139,0.056c2.306-0.441,4.703-0.896,7.232-1.327
			c5.927-1.014,11.913-1.515,17.877-2.252c2.302-1.996,4.58-4.023,6.836-6.083c-3.777,0.034,2.571-2.676,3.164-2.906
			c1.507-1.411,3.014-2.82,4.522-4.224c-13.024,3.542-26.316,7.404-39.77,8.866V526.307z"/>
		<path style="fill:#1A1A1A;" d="M272.421,463.377c-0.362-0.234-0.636-0.552-0.871-0.901c-1.676,0.417-3.327,0.827-4.956,1.231
			c0.212,0.496,0.39,1.013,0.474,1.537c16.425-5.28,33.392-9.407,50.114-13.638c0.188-0.172,0.373-0.346,0.562-0.518
			c-16.197,3.964-31.97,7.858-46.193,11.388C271.785,462.825,272.059,463.143,272.421,463.377z"/>
		<path style="fill:#1A1A1A;" d="M225.093,478.016c-0.198-0.54,33.969-10.379,36.962-11.222c-0.247-0.563-0.503-1.142-0.777-1.764
			c-28.928,7.201-49.225,12.335-49.225,12.335v10.27c28.046-9.651,58.25-15.631,87.027-22.8c-0.117,0.015-0.233,0.029-0.352,0.045
			c-0.003-0.288-0.007-0.573-0.01-0.861c2.467,0.407,2.62,0.256,4.806-0.227c2.708-2.366,5.403-4.742,8.077-7.139
			C302.541,459.309,226.267,481.509,225.093,478.016z M214.4,484.608c-0.193,0.03-0.163-0.76,0.279-0.072
			C214.588,484.563,214.495,484.593,214.4,484.608z M219.132,478.702c-1.329,1.457-2.646,1.732-3.95,0.829
			c-0.126-1.794,0.9-2.608,3.082-2.442C219.328,477.404,219.619,477.942,219.132,478.702z M222.759,481.736
			c-0.971,1.239-1.931,1.487-2.881,0.743c-0.341-1.278,0.415-2.021,2.273-2.231C222.758,480.6,222.961,481.096,222.759,481.736z
			 M266.317,470.944c-1.447,0.876-1.202,0.784-2.152,0.264C265.122,469.572,267.177,470.423,266.317,470.944z"/>
		<path style="fill:#1A1A1A;" d="M200.178,530.896c0.455,1.177,0.657,2.378,0.6,3.604c9.491-1.783,18.975-3.362,28.519-4.85
			c1.762-1.502,3.523-3.005,5.278-4.508c-6.859,0.837-13.635,1.767-20.405,3.145C211.43,530.361,203.383,530.403,200.178,530.896z"
			/>
		<path style="fill:#1A1A1A;" d="M223.077,533.118c-7.483,1.246-14.903,2.674-22.358,4.063c-0.045,1.522-0.133,3.042-0.263,4.563
			c0.833-0.172,1.669-0.326,2.506-0.468c4.718-0.827,9.479-1.359,14.23-1.942c2.881-2.179,5.812-4.308,8.559-6.661
			c-0.645,0.108-1.29,0.215-1.935,0.323C223.615,533.543,222.991,533.377,223.077,533.118z"/>
		<path style="fill:#1A1A1A;" d="M138.735,549.889c-15.896,2.921-31.069,4.673-46.636,9.55c0.139,0.178,0.285,0.346,0.423,0.528
			c-0.313,0.355-1.281,0.891-1.417-0.217c-2.659,0.829-40.991,14.462-39.096,18.031c2.25,4.266,63.517-20.412,67.164-21.05
			c1.746-2.013,4.029-2.904,6.852-2.674c0,0,0.005-0.019,0.005-0.029c0.007,0.002,0.014,0.003,0.014,0.003
			c0.008,0.008,0.008,0.015,0.012,0.022c-0.01,0.002-0.021,0.002-0.03,0.004c-0.081,0.631-0.203,1.241-0.382,1.821
			c13.145-2.208,24.973-3.261,38.362-3.453c3.072-0.044,37.167,5.487,38.004,2.373C203.747,548.364,143.745,549.391,138.735,549.889
			z"/>
		<path style="fill:#1A1A1A;" d="M406.317,555.998c-31.082,0.471-62.452,6.681-92.841,12.883c-0.146,0.276-0.359,0.523-0.681,0.73
			c-0.052-0.178-0.133-0.366-0.209-0.553c-18.589,4.028-36.928,9.458-54.958,15.424c1.212,3.135-5.105,3.379-5.114,1.979
			c-0.523,0.229-14.123,8.235-11.934,9.972c-1.179-1.006,43.823-17.311,45.163-17.717c-1.14-0.996,1.351-2.03,1.143-0.336
			c0.985-0.289,1.992-0.577,3.023-0.868c0.104-0.104,0.256-0.192,0.371-0.283c0.071,0.022,0.125,0.086,0.19,0.124
			c21.404-6.116,43.313-11.412,65.358-14.8c7.349-1.13,56.77-3.87,56.854-5.847C410.675,555.847,408.553,555.612,406.317,555.998z"
			/>
		<path style="fill:#1A1A1A;" d="M763.928,402.427c0.934,0.49,0.659,0.569,2.02-0.39c0,0,0.001-0.001,0.002-0.001
			c-0.701-0.019-1.401-0.031-2.102-0.045C763.836,402.12,763.852,402.261,763.928,402.427z"/>
		<path style="fill:#1A1A1A;" d="M752.664,402.105l0.227-0.027l-0.092-0.132c-0.025,0-0.052,0.001-0.077,0.001L752.664,402.105z"/>
		<path style="fill:#1A1A1A;" d="M635.416,438.581c-0.22,0.022-0.44,0.045-0.66,0.067
			C634.921,438.709,635.152,438.685,635.416,438.581z"/>
		<path style="fill:#1A1A1A;" d="M381.303,439.609l-0.035-0.035c-0.632,0.314-0.686,0.552-0.596,0.669
			c0.111-0.025,0.223-0.05,0.334-0.074C381.113,439.989,381.204,439.797,381.303,439.609z"/>
		<path style="fill:#1A1A1A;" d="M666.576,413.661c0,0.014,0,0.027,0,0.041C666.627,413.657,666.632,413.641,666.576,413.661z"/>
		<path style="fill:#1A1A1A;" d="M593.507,392.632c-80.385,13.818-160.501,30.647-239.791,49.724
			c-0.339,0.291-0.678,0.587-1.015,0.879c51.338-12.315,103.234-21.544,154.651-33.188c0-0.193,0-0.385,0-0.579
			c0.204,0.167,0.375,0.314,0.535,0.456c13.409-3.057,164.383-24.869,164.263-22.292c-0.051,1.825-23.772,3.545-25.184,3.701
			c0.367,1.487-2.547,3.742-3.094,2.323c0.084-0.918,0.444-1.618,1.078-2.099c-12.843,1.421-26.288,2.013-38.963,4.547
			c-0.096,1.085-0.523,1.947-1.626,2.364c0.082-1.031,0.469-1.858,1.386-2.334c-32.341,4.002-65.481,8.466-97.252,15.601
			c-0.224,0.306-0.59,0.647-1.144,1.1c0-0.284,0-0.568,0-0.852c-42.156,9.21-84.237,18.749-126.347,28.186
			c-0.021,0.035-0.039,0.073-0.062,0.106c-0.054,0.079-0.204,0.058-0.272-0.032c-10.932,2.45-21.863,4.898-32.801,7.325
			c-2.619,2.427-5.197,4.899-7.8,7.342c1.974-0.508,3.941-1.012,5.896-1.515c-0.074-0.515,0.09-0.454,0.461-0.661
			c0.23,0.106,0.366,0.256,0.414,0.438c5.199-1.337,61.381-17.276,62.087-14.246c0.436,1.898-65.436,17.059-71.715,18.658
			c-0.065,0.062-0.133,0.123-0.2,0.185c0.252,0.523-0.009,0.917-0.782,1.177c-0.152-0.012-0.257-0.065-0.356-0.123
			c-1.766,1.645-3.533,3.286-5.309,4.918c2.337-0.597,30.294-9.258,31.329-6.37c0.68,1.899-31.783,8.567-34.401,9.172
			c-2.736,2.49-5.487,4.966-8.256,7.425c1.754-0.464,3.591-0.948,5.473-1.444c0.75-0.986,1.771-1.303,3.057-0.954l0.004,0.003
			c-0.024,0.059-0.042,0.103-0.065,0.158c22.366-5.906,45.226-10.041,67.474-16.327c11.466-3.239,22.872-6.582,34.519-9.157
			c3.229-0.715,28.879-3.624,29.032-3.952c-2.033,4.365-24.127,5.524-28.745,6.503c-10.378,2.198-20.631,4.788-30.864,7.551
			c-19.42,5.243-39.107,9.399-58.527,14.673c-0.005,0.842-0.977,0.674-1.394,0.38c-8.256,2.237-16.466,4.665-24.751,6.786
			c-1.808,1.579-3.624,3.15-5.45,4.714c9.753-2.563,19.6-4.858,29.471-6.908c0.509-0.602,1.25-0.725,2.287-0.474
			c28.863-6.027,57.681-12.522,86.484-18.842c0.103-2.085,3.237-1.729,4.367-0.95c66.516-14.326,135.641-24.875,203.523-29.843
			c-1.063-1.328,1.966-2.363,1.398-0.103c0.965-0.069,15.989-1.134,15.947-0.145c-0.138,3.266-72.711,8.203-80.257,9.256
			c-27.488,3.834-54.93,7.564-82.229,12.46c-0.557,0.726-1.12,0.827-1.689,0.298c-18.029,3.099-36.052,6.037-53.941,9.913
			c3.634,0.448,5.29-0.087,5.223,3.491c50.241-11.726,102.04-18.904,153.205-24.971c27.591-3.271,55.318-5.805,83.044-7.595
			c4.543-0.294,69.176-1.449,68.935,0.232c-0.407,3.045-63.304,1.71-68.011,1.952c-29.535,1.525-59.132,4.134-88.423,8.279
			c-49.894,7.06-99.355,16.079-148.949,24.884c-0.386,2.859-9.628,5.53-7.174,1.384c-0.265,0.052-6.858,1.936-7.928,1.218
			c-0.23-0.155,9.14-3.735,9.301-3.782c0.545-1.218,0.912-2.497,0.854-3.934c-1.984,0.661-3.911,0.703-5.778,0.126
			c-20.731,4.759-41.553,9.068-62.264,13.921c0.003,0.029,0.01,0.055,0.012,0.086c-0.056-0.02-0.095-0.035-0.145-0.054
			c-8.429,1.967-16.822,4.07-25.277,5.921c-0.85,0.814-1.625,5.736-2.671,5.558c-1.113-0.476-1.549-1.385-1.31-2.729
			c0.134-0.671,0.27-1.367,0.407-2.057c-11.659,2.497-23.266,5.395-34.703,8.763c-2.644,2.237-5.275,4.483-7.891,6.745
			c10.568-2.57,104.97-26.189,105.482-23.876c0.364,1.68-98.365,24.33-109.923,27.763c-1.832,1.606-3.663,3.214-5.481,4.833
			c7.469-1.505,69.248-18.366,70.363-15.132c0.106,0.309-67.75,17.283-74.833,19.146c-2.313,2.085-4.624,4.171-6.918,6.28
			c1.863-0.493,3.997-1.036,6.312-1.577c-0.091-2.503,5.362-1.9,6.39-2.055c0.053-1.33,2.045-2.058,2.459,0
			c7.018-1.628,14.044-3.239,21.06-4.875c-0.252-0.861-0.318-1.72,0.513-2.582c1.418,0.355,2.797-0.163,4.196-0.203
			c0.285-0.627,0.503-2.698,1.587-2.539c1.124,0.163,1.194,3.212,0.756,3.592c3.089-0.794,6.387-1.64,9.854-2.529
			c-0.43-0.02-0.857-0.04-1.287-0.061c-0.415-0.964-0.108-1.596,0.913-1.897c0.509,0.555,1.015,1.108,1.521,1.663
			c17.17-4.379,34.528-7.766,51.787-11.745c-0.851-1.788-0.652-3.202,0.599-4.245c1.837-0.525,2.065,3.229,2.296,3.547
			c9.007-2.225,17.876-4.946,26.9-7.134c-0.417-0.6,0.333-3.017,0.916-3.417c-2.532,0.501-38.095,7.423-38.192,6.75
			c-0.37-2.654,35.929-9.651,38.825-10.28c-1.421-1.702-2.148-2.393-1.488-4.855c2.102,0.836,3.531,2.252,4.286,4.246
			c25.96-5.647,51.98-11.077,78.133-15.759c0.119-0.259,0.268-0.506,0.471-0.731c0.138,0.239,0.238,0.424,0.319,0.589
			c3.407-0.61,6.81-1.189,10.236-1.675c-0.023-0.033-0.045-0.069-0.067-0.102c0.235-1.113,1.285-0.774,1.544-0.101
			c43.192-5.956,86.725-12.966,130.41-17.392c-0.255-0.094-0.347-0.397-0.115-0.974c0.797-0.875,1.751-1.572,2.862-2.094
			c-0.013,1.479-1.21,2.655-2.087,3c35.717-3.597,71.535-5.455,107.353-3.569c-0.696-0.797-0.47-3.637,0.733-3.958
			c0.938,0.313,1.655,0.889,2.148,1.732c1.67,0.336,1.72,0.822,0.148,1.457c-0.462,0.287-0.903,0.625-1.393,0.856
			c2.02,0.106,24.593,1.32,24.374,2.504c-0.364,1.976-69.528,0.215-75.863,0.24c-25.911,0.106-51.431,3.486-77.258,5.089
			c0.109,1.327,0.212,2.652,0.242,3.979c10.503-0.957,21.049-1.846,31.566-2.632c-1.12-1.846,4.199-5.438,4.274-0.299
			c22.732-1.456,45.377-2.222,68.13-3.02c0.253-0.325,0.61-0.555,1.127-0.634c0.113,0.197,0.233,0.39,0.35,0.584
			c0.13-0.003,0.261-0.003,0.391-0.007c0.045-0.266,0.107-0.535,0.191-0.805c1.288-0.309,1.439-0.079,3.56-0.052
			c0.045,0.271,0.091,0.54,0.136,0.811c6.729-0.01,13.436,0.582,20.165,0.642c-2.045-1.137,3.335-0.782,0.416,0.005
			c8.991,0.07,18,0.444,26.934,1.505c2.697-3.827,6.681-9.271,11.156-15.307c-0.251,0.009-0.502,0.015-0.754,0.024
			c0.101-0.185,1.059-1.931,1.614-1.184c4.714-6.35,9.909-13.275,14.71-19.647c-4.554-0.119-9.089-0.574-13.64-0.775
			c0.079,0.045,0.061,0.128-0.058,0.252c-0.094-0.029-0.189-0.059-0.284-0.087c-0.007-0.076,0-0.135,0.014-0.178
			c-44.393-1.952-87.959-0.895-132.14,3.933c0.394,0.155,0.434,0.533,0.116,1.132c0.355,1.226,0.042,1.976-0.936,2.25
			c-1.358-0.077-0.475-2.839,0.097-3.306c-32.083,3.406-64.015,8.017-95.857,13.164c-5.82,0.94-75.94,13.699-76.013,11.987
			c-0.195-4.223,78.451-15.756,85.831-16.618c-0.007-0.012-0.014-0.032-0.02-0.042c-0.116-2.852,3.324-1.917,4.256-0.456
			c9.411-1.1,18.726-2.993,28.12-4.246c0.17-0.587,0.573-0.952,1.362-0.952c0.035,0.252,0.07,0.503,0.104,0.755
			c28.575-3.831,57.33-7.021,86.116-8.647c-2.354-0.841-3.304-2.132-2.844-3.873c1.463-1.936,5.287,2.036,4.873,3.752
			c11.054-0.681,21.875-2.097,32.986-1.993c0.045-0.441,0.106-0.879,0.158-1.318c0.56-0.281,1.121-0.562,1.683-0.841
			c-0.043,0.731-0.031,1.481-0.248,2.173c4.852,0.045,9.666-0.247,14.508-0.523c-2.086-0.79-0.882-2.015-0.67-3.627
			c-2.898,0.049-5.793,0.109-8.69,0.163c-0.52,0.323-1.324,0.252-1.856,0.298c-0.977,0.689-2.013,0.935-3.108,0.735
			c-0.054-0.313-0.107-0.625-0.163-0.938c-1.342,0.012-2.684,0.047-4.025,0.106c0.056,0.308,0.384,0.622,0.574,0.932
			c-1.388,0.015-2.775,0.029-4.163,0.042c-0.273,0.276-0.55,0.552-0.824,0.826c-0.573-0.01-1.145-0.02-1.718-0.03
			c0.048-0.562,0.169-1.096,0.336-1.614c-53.25,0.42-106.005,9.802-158.4,18.241c-0.416,1.051-1.758,1.68-2.406,0.389
			c-12.234,1.971-173.629,34.049-173.462,35.184c-0.384-2.617,35.747-10.04,38.781-10.739c-0.011-0.086-0.018-0.173-0.019-0.259
			c0.129,0.057,0.261,0.115,0.392,0.172c44.728-10.337,89.635-20.212,135.035-27.154c0.23-0.214,0.496-0.399,0.848-0.51
			c0.188,0.104,0.442,0.175,0.589,0.289c29.478-4.5,58.808-8.561,88.396-12.142c-0.203-0.942-0.021-1.781,0.548-2.521
			c0.782,0.525,1.567,1.053,2.354,1.581v-0.002l0.004-0.001l0.002,0.007l-0.006-0.003c-0.077,0.202-0.152,0.415-0.232,0.629
			c22.805-2.676,45.659-5.021,68.608-5.514c0.508-0.984,2.39-4.483,2.859-1.006c0.545,0.257,1.108,0.498,1.567,0.843
			c19.809-0.817,39.495-1.093,59.286,0.357c-0.903-2.36,2.978-0.061,3.141,0.052c0.773-0.071,1.493,0.054,2.159,0.373
			c0.209,0.019,0.411,0.037,0.614,0.054c-0.146-0.889-0.144-1.762,0.396-2.563c0.325-1.682,3.072-1.404,3.515,0.042
			c0.078-0.035,0.155-0.072,0.218-0.111c1.328,0.313,0.322,1.113-0.111,1.04c-0.025,0.658-0.121,1.313-0.228,1.971
			c0.337,0.039,5.816,0.664,5.675,1.334c-0.15,0.713-4.576,0.389-5.193,0.387c1.525,1.539-0.994,4.899-2.253,1.636
			c-0.165-0.032-0.307,0.01-0.426,0.128c-1.327-0.136-1.304-0.76-1.311-1.819c-0.22-0.003-0.44-0.01-0.669-0.015
			c-0.061,0.706-2.338,2.945-3.258,2.27c-0.363-0.873-0.184-1.657,0.542-2.349c-13.891-0.464-27.624-1.216-41.532-0.824
			c-0.15,1.258-0.49,2.467-1.021,3.629c4.564-0.239,9.241-0.39,13.975-0.45l0.027-0.073l0.05,0.072
			c3.656-0.045,7.346-0.032,11.048,0.045c0.107-1.153,3.344-0.836,2.102,0.045c11.911,0.328,23.885,1.338,35.121,3.258
			c8.717-11.56,15.832-20.9,15.832-20.9C741.771,377.419,667.812,379.859,593.507,392.632z M560.534,400.317l0.103-0.296
			l0.217,0.244L560.534,400.317z M378.802,442.976c-0.869-0.254-0.861-0.969-0.878-1.671
			C378.859,441.525,378.881,442.225,378.802,442.976z M336.008,462.02c-1.023,0.621-1.949,0.607-2.779-0.039
			C333.373,459.544,337.535,461.582,336.008,462.02z M332.122,468.921l-0.137,0.284l-0.19-0.262L332.122,468.921z M332.316,470.115
			c-1.057,1.429-1.204-2.063,0.176-0.353C332.43,469.871,332.388,470.021,332.316,470.115z M340.009,468.112
			c-1.85,0.797-1.88,0.728-2.664-1.552c0.533-1.618,2.208-1.653,3.355-2.42c1.022,0.232,1.749,0.925,2.494,1.593
			c0.005,0.552,0.01,1.103,0.015,1.653C342.098,467.433,341.053,467.66,340.009,468.112z M334.007,475.273
			c-1.966,1.983-3.729,2.354-5.294,1.117c0.079-1.978,1.481-2.724,4.209-2.238C333.815,474.158,334.177,474.531,334.007,475.273z
			 M354.424,470.949c-1.745-2.206,0.556-2.031,0.74-1.16C354.919,470.177,354.67,470.564,354.424,470.949z M368.067,466.812
			c-0.595,1.191-3.696-0.193-2.96-0.922C365.387,465.617,368.85,465.257,368.067,466.812z M578.471,436.919
			c0.409-0.856,0.955-1.391,1.968-0.858C579.83,437.544,579.821,437.548,578.471,436.919z M305.398,505.064l0.212-0.145l0.05,0.237
			L305.398,505.064z M358.136,486.236c-0.738,0.217-0.608,0.385-0.895-0.469c0.227-0.066,0.506-0.237,0.667-0.162
			c0.144,0.066,0.157,0.41,0.229,0.631H358.136z M360.625,490.065c0.182,0.138,0.362,0.277,0.543,0.417
			C360.069,491.077,359.99,490.169,360.625,490.065z M587.433,441.959c-0.133-0.033-0.286-0.037-0.393-0.108
			C587.146,441.922,587.3,441.925,587.433,441.959c0.408-0.264,0.819-0.528,1.23-0.79
			C588.628,442.667,588.393,443.081,587.433,441.959z M637.815,444.497c-0.855-0.296-1.23-0.9-1.128-1.815
			c0.359-0.267,0.718-0.535,1.078-0.802C639.171,442.863,639.19,443.736,637.815,444.497z M783.354,422.929
			c0.141-0.9,0.866-1.191,1.752-1.083c-0.003-0.02-0.002-0.039-0.005-0.059l0.17-0.151l-0.102,0.215
			c-0.021,0-0.041-0.002-0.063-0.005C785.393,424.067,783.098,424.579,783.354,422.929z M777.953,427.446
			c-1.67-0.751-0.335-3.538,1.183-3.827c2.812-0.531,0.632,7.574,0.709,8.366c-1.042-0.025-2.085-0.052-3.128-0.077
			C777.602,431.347,779.161,427.989,777.953,427.446z M774.513,413.865c0.699-0.402,1.715,0.713,1.796,1.177
			c-0.251,0.937-0.747,1.268-1.489,0.994C773.86,415.262,773.758,414.539,774.513,413.865z M774.242,432.504l-0.007,0.01
			c-0.189-0.054-0.38-0.108-0.57-0.161C773.856,432.404,774.05,432.454,774.242,432.504z M771.211,415.62
			c1.187,0.34,0.12,4.362-1.431,2.59C769.582,416.708,770.06,415.844,771.211,415.62z M769.856,408.034
			c0.011-0.012,0.176,0.113,0.267,0.173c-0.138,0.513-0.343,0.61-0.615,0.296C769.62,408.344,769.727,408.179,769.856,408.034z
			 M768.9,422.34h0.002c0.082,0.03,0.197,0.096,0.352,0.2c0.226-0.025,3.848-1.068,4.085,0.212c0.615,3.33-4.44,0.047-4.406,0.103
			l0.002-0.002C768.622,422.481,768.609,422.31,768.9,422.34z M767.255,426.508c0.508-0.296,1.656,1.253,0.145,1.695
			C766.473,427.742,766.424,427.177,767.255,426.508z M753.176,406.667c2.635-2.292,6.955-0.205,6.664,3.501
			c-1.695-2.095-3.817-2.824-6.281-2.597C752.806,410.293,750.44,407.459,753.176,406.667z M725.167,420.731
			c2.417,2.38-6.224,1.031-2.289-0.321C723.64,420.516,724.403,420.623,725.167,420.731z M721.671,414.885
			c1.065,0.663,0.91,1.189-0.464,1.579C720.108,415.809,720.264,415.282,721.671,414.885z M707.084,411.552
			c0.513-0.143,0.279,0.412,0.193,0.619c-0.269-0.022-0.385-0.124-0.348-0.308C706.956,411.766,707.039,411.655,707.084,411.552z
			 M703.723,409.222c0.217-1.211,1.987,2.795,0.496,3.121C702.831,412.652,703.808,408.747,703.723,409.222z M697.357,407.562
			c0.99,0.619,1.71,0.62,1.984,1.658c0.69,0.471,0.69,0.523,0,0.989c0.012,0.333,0.021,0.669,0.033,1.004
			c0.841-0.182,1.527,0.062,2.059,0.73c-0.107,1.206-0.815,1.606-2.127,1.201c-0.67,0.308-1.341,0.617-2.01,0.925
			c-0.022,0.795-0.384,0.676-0.37-0.022c-0.142-0.168-0.286-0.336-0.431-0.503c0.691-0.706,1.458-1.317,2.304-1.831
			c-0.08-0.111-0.131-0.236-0.151-0.37c-0.974-0.066-1.641-1.838-1.821-2.605c-0.39-0.412-0.396-0.935-0.417-1.455
			C696.778,407.195,697.148,407.104,697.357,407.562z M697.63,421.728c-0.144,0.304-0.619,0.234-0.871,0.234
			c-0.113-0.333-0.226-0.664-0.339-0.996C697.1,420.866,697.504,421.119,697.63,421.728z M709.023,422.073
			c-1.549-2.921,1.96-4.214,2.115-1.89c0.56,0.481,0.762,1.112,0.608,1.892c8.424-0.003,16.86,0.289,25.275,0.635
			c-0.669-1.641-0.77-5.714,1.513-6.39c0.354-1.194,0.767-2.366,1.235-3.521c-1.454,0.669-2.558,0.387-3.308-0.849
			c-0.317-2.102,3.34,0.39,3.226,0.311c2.812,0.355,3.503,2.581,0.895,4.055c0.908,0.733,3.969,4.095,3.34,5.39
			c-0.636,1.308-2.278-1.315-2.754,1.117c2.002,0.032,21.547-0.436,21.275,1.793c-0.295,2.381-17.894,0.573-18.6,0.541
			c-7.912-0.336-76.496,3.042-77.043-0.346C666.51,423.102,705.049,422.073,709.023,422.073z M666.576,413.702
			c0-0.013,0-0.027,0-0.041C666.632,413.641,666.627,413.657,666.576,413.702c0.008,1.663,0.015,3.328,0.022,4.991
			c-0.822-0.12-1.672-0.148-2.46-0.38C661.056,417.404,666.072,414.141,666.576,413.702z M658.381,427.081
			c0.269,0.209,0.898,0.025,0.678,0.594C658.993,427.841,655.514,427.846,658.381,427.081z M652.335,428.549
			c-0.185-0.025-0.34-0.286-0.504-0.437C652.202,426.262,654.188,428.805,652.335,428.549z M636.307,418.153
			c0.458,0.183,0.465,0.538,0.379,0.927C636.566,419.614,634.969,418.854,636.307,418.153z M620.008,422.616
			c-0.615,0.257-1.27,0.404-1.932,0.436L620.008,422.616z M611.41,419.984c0.198,0.222,0.149,0.356-0.144,0.402
			C611.068,420.164,611.115,420.03,611.41,419.984z M601.018,426.97c0.068,0.503,0.138,1.006,0.206,1.508
			c-0.259,0.072-0.513,0.158-0.763,0.256c-0.301-0.074-0.602-0.146-0.905-0.219C599.606,427.587,599.984,426.97,601.018,426.97z
			 M570.426,425.051c1.905-1.209,2.953-0.647,3.272,1.619c-0.056,0.009-0.112,0.015-0.168,0.022c0.028,0.404,0.109,0.81,0.074,1.207
			C573.388,430.411,568.322,426.385,570.426,425.051z M567.824,427.303c0.688,0.175,0.794,0.521,0.317,1.043
			C567.445,428.177,567.34,427.829,567.824,427.303z M561.34,426.444c-0.438,0.136-2.86,0.629-3.079-0.262
			C557.571,423.31,563.399,425.811,561.34,426.444z M500.041,436.872c-0.042,0.104-0.056,0.261-0.13,0.299
			c-0.069,0.035-0.202-0.057-0.306-0.091C499.631,436.75,499.775,436.682,500.041,436.872z M614.292,410.352
			c0.071-0.269,0.274-0.493,0.616-0.651C616.695,410.695,613.819,412.166,614.292,410.352z M369.068,461.624
			c-1.374-0.39-1.529-0.917-0.464-1.579C370.012,460.442,370.166,460.969,369.068,461.624z M807.656,394.714
			c-0.615,0.259-1.27,0.406-1.932,0.437L807.656,394.714z M511.219,412.652c1.09,0.558,1.102,1.238,0.037,2.038
			C509.905,414.041,509.892,413.362,511.219,412.652z M539.456,417.149l0.188-0.261l0.136,0.281L539.456,417.149z M562.411,413.052
			c-1.282,1.204-2.489,1.366-3.624,0.484C558.056,408.408,565.661,411.8,562.411,413.052z M706.204,391.833
			c-22.812,1.107-46.126,2.701-68.72,6.121c-0.324,0.372-0.605,0.414-0.846,0.126c-29.176,4.33-58.296,8.721-87.429,13.322
			c0.285,0.831,0.296,1.774,0.247,2.743l0.057,0.094c-2.852-0.274-5.397-1.224-8.243-1.303l-0.104-0.059
			c0.007-0.044,0.025-0.071,0.035-0.111c-18.174,3.259-36.248,7.125-54.312,10.953c-9.806,2.079-19.529,4.122-29.424,5.738
			c-4.758,0.777-20.151,6.31-23.507,4.228c0.621-0.859,1.5-1.374,2.643-1.544c7.114-2.893,14.662-4.662,22.188-6.084
			c-1.067-1.815-0.814-2.904,0.767-3.273c1.006-0.116,0.982,2.465,0.905,2.96c7.673-1.431,15.258-3.2,22.884-4.862
			c-3.098-1.54,3.964-2.603,4.11-0.836c9.515-1.917,19.033-3.822,28.55-5.738c0.103-0.259,0.257-0.289,0.461-0.091
			c45.044-9.017,91.37-16.368,137.149-20.31c-0.065-0.531,0.696-0.634,0.688-0.059c7.106-0.599,115.025-6.91,114.529-3.735
			C768.406,393.027,709.758,391.661,706.204,391.833z M781.375,393.239c0-1.122,0-2.245,0-3.367
			C783.211,391.349,783.211,391.72,781.375,393.239z M787.411,386.241c0.03-0.212-75.736,1.261-81.233,1.532
			c-0.508,0.398-0.982,0.42-1.421,0.064c-1.418,0.057-17.13,1.461-17.617-1.27c1.186-1.011,2.604-1.471,4.256-1.379
			c3.766-0.54,7.67-0.718,11.476-0.787c0.557-1.022,1.42-0.782,2.293-0.042C712.159,384.233,787.837,383.256,787.411,386.241z"/>
		<path style="fill:#1A1A1A;" d="M799.697,520.771c-0.002-0.013-0.01-0.02-0.01-0.02c-0.386-0.025-0.764-0.069-1.137-0.141
			c-0.463-0.096-0.858-0.302-1.136-0.699c-64.216,6.649-124.35,33.253-189.224,34.658c-0.195,1.724-5.111,1.947-5.641,2.137
			c67.277,2.114,130.607-29.567,197.325-34.51c-0.167-0.459-0.036-0.945-0.15-1.418
			C799.726,520.777,799.708,520.774,799.697,520.771z"/>
		<path style="fill:#1A1A1A;" d="M611.842,443.17c-8.029,0.518-16.062,1.658-24.031,2.697l0.014,0.013
			c-0.007-0.005-0.015-0.008-0.022-0.013c-0.016,0.002-0.029,0.003-0.042,0.005c0.378,1.287,0.716,2.581,1.014,3.888
			c5.292-0.574,10.586-1.137,15.879-1.72c0.333-0.727,1.414-1.421,1.594-0.173c1.364-0.145,2.734-0.287,4.11-0.422
			c0.056-0.061,0.124-0.114,0.22-0.158c2.014-0.895,1.42-2.403,1.101-3.888C611.731,443.313,611.787,443.244,611.842,443.17z
			 M605.283,444.663c0.78-0.106,1.563-0.212,2.343-0.318C606.775,445.606,606.733,445.613,605.283,444.663z"/>
		<path style="fill:#1A1A1A;" d="M735.662,501.165c2.333-1.69,4.413-3.708,6.747-5.406c-0.084-0.237,0.017-0.362,0.3-0.375
			c0.026,0.029,0.06,0.059,0.094,0.087c0.61-0.427,1.213-0.864,1.808-1.312c-0.136-0.149-0.271-0.303-0.401-0.459
			C741.32,496.285,738.466,498.781,735.662,501.165z"/>
		<path style="fill:#1A1A1A;" d="M746.07,504.172c0.063-0.045,0.126-0.086,0.19-0.131c-0.056-0.007-0.113-0.008-0.169-0.015
			C746.084,504.073,746.077,504.124,746.07,504.172z"/>
		<path style="fill:#1A1A1A;" d="M601.514,556.668c0.139,0.005,0.277,0.012,0.418,0.017c0.307-1.655,0.854-1.801,2.173-2.075
			c-1.794-0.003-3.589-0.037-5.383-0.098C599.651,555.23,600.583,555.948,601.514,556.668z"/>
		<path style="fill:#1A1A1A;" d="M427.633,556.989c0.093-2.775,104.599,15.406,109.879,17.385c0.144-0.526,0.337-1.032,0.577-1.518
			C531.505,570.8,427.895,548.853,427.633,556.989z"/>
		<path style="fill:#1A1A1A;" d="M553.948,553.214c-0.795-0.111-1.589-0.224-2.381-0.34
			C552.183,552.995,552.977,553.106,553.948,553.214z"/>
		<path style="fill:#1A1A1A;" d="M539.3,574.983c0.501,0.173,1.005,0.338,1.51,0.516c0.985-0.266,1.975-0.526,2.964-0.782
			c-1.467-0.429-2.92-0.905-4.355-1.43C539.165,573.823,539.125,574.388,539.3,574.983z"/>
		<path style="fill:#1A1A1A;" d="M744.137,538.496c-0.147,0.958-1.852,0.841-2.361,0.885c-0.251,0.188-0.512,0.331-0.777,0.452
			c3.692-0.863,7.392-1.712,11.113-2.435c-0.559-1.379,1.409-1.049,1.912-0.384c14.015-2.591,28.022-4.929,42.29-5.368
			c0-0.535,0-1.071,0-1.606c-18.146,0.434-36.094,3.301-53.811,7.117C743.373,537.219,743.916,537.667,744.137,538.496z"/>
		<path style="fill:#1A1A1A;" d="M442.33,565.179c-0.565,0.044-5.546,0.301-5.547,1.105c-0.002,0.942,6.967,1.16,7.489,1.199
			C443.378,566.983,442.732,566.208,442.33,565.179z"/>
		<path style="fill:#1A1A1A;" d="M855.141,569.898c-19.562-8.163-47.411-13.455-68.609-13.617c0.258,0.769,0.067,1.547-0.57,2.339
			c-0.047,0.04-0.117,0.064-0.18,0.098c24.872-0.92,47.268,8.4,70.901,13.611c-0.012-0.013-0.023-0.027-0.035-0.04
			C855.549,571.796,853.555,571.188,855.141,569.898z"/>
		<path style="fill:#1A1A1A;" d="M584.596,554.545c-0.217,0.89,11.962,1.865,12.777,1.915c-0.585-0.642-1.129-1.318-1.628-2.025
			C595.379,554.424,584.843,553.479,584.596,554.545z"/>
		<path style="fill:#1A1A1A;" d="M551.065,552.802c-0.271,0.36-0.613,0.592-1.134,0.552c-0.526-0.041-1.058-0.037-1.585-0.054
			c-0.698,0.486-1.341,0.424-1.93-0.188c-1.61-1.013,3.184-0.224,1.644-0.494c0.091-0.067,0.18-0.14,0.268-0.214
			c-1.028-0.17-2.072-0.353-3.106-0.53c0.028,0.632,0.573,2.455,0.185,3.456c17.376,3.083,34.868,4.403,52.376,6.369
			c0.096-0.759,0.295-1.495,0.749-2.18c-0.116-0.69-0.33-1.322-0.587-1.931C582.285,556.032,566.65,555.114,551.065,552.802z"/>
		<path style="fill:#1A1A1A;" d="M574.714,468.185c0.518-0.044,1.034-0.086,1.549-0.128
			C575.718,467.938,575.196,467.942,574.714,468.185z"/>
		<path style="fill:#1A1A1A;" d="M384.741,566.167c0.221,0.437,0.349,1.002,1.136,0.88c0.914,0.025,1.829,0.017,2.744-0.02
			c-0.003,0.407-0.007,0.814-0.01,1.223c0.073,0.131,0.147,0.261,0.222,0.392c2.849-0.232,29.982,1.361,30.175-0.511
			C419.274,565.475,386.842,565.919,384.741,566.167z"/>
		<path style="fill:#1A1A1A;" d="M382.663,567.442c-0.03-0.367-0.063-0.733-0.096-1.1c-26.172,1.132-52.918,5.006-77.726,13.734
			c0.057,0.13,0.114,0.262,0.17,0.393c-0.07,0.439-0.14,0.88-0.211,1.318c1.227-0.437,2.452-0.879,3.677-1.323
			c0.352-0.528,0.654-0.637,0.909-0.326c23.684-8.294,49.568-9.471,74.324-11.037c-0.067-0.217-0.132-0.503-0.219-0.898
			C383.216,567.95,382.94,567.696,382.663,567.442z"/>
		<path style="fill:#1A1A1A;" d="M647.6,557.736c-0.008,0.001-0.017,0.001-0.017,0.001
			C647.743,557.74,647.771,557.739,647.6,557.736z"/>
		<path style="fill:#1A1A1A;" d="M311.888,509.67c-0.018-0.089-0.035-0.177-0.053-0.266c-0.172,0.034-0.345,0.069-0.517,0.103
			C311.488,509.558,311.673,509.61,311.888,509.67z"/>
		<path style="fill:#1A1A1A;" d="M710.898,469.962L710.898,469.962C710.868,469.957,710.858,469.956,710.898,469.962z"/>
		<path style="fill:#1A1A1A;" d="M762.17,512.401c0.616-0.433,1.228-0.877,1.838-1.329
			C763.361,510.87,762.72,511.182,762.17,512.401z"/>
		<path style="fill:#1A1A1A;" d="M324.717,554.396c-0.004-0.001-0.006-0.002-0.01-0.003
			C324.695,554.405,324.7,554.404,324.717,554.396z"/>
		<path style="fill:#1A1A1A;" d="M605.114,578.999c-0.064,0.024-0.127,0.048-0.19,0.072
			C604.984,579.085,605.049,579.058,605.114,578.999z"/>
		<path style="fill:#1A1A1A;" d="M857.757,513.931c-0.346-0.131-0.634-0.189-0.867-0.168
			C857.179,513.821,857.467,513.873,857.757,513.931z"/>
		<path style="fill:#1A1A1A;" d="M870.162,356.762l-19.666-7.319C856.492,351.866,863.828,355.694,870.162,356.762z"/>
		<path style="fill:#1A1A1A;" d="M850.496,349.443c-1.037-0.419-2.034-0.796-2.979-1.108L850.496,349.443z"/>
		<path style="fill:#1A1A1A;" d="M635.307,539.256c0-0.04-0.001-0.08-0.001-0.12c-0.045,0.01-0.09,0.021-0.135,0.031
			C635.219,539.197,635.255,539.222,635.307,539.256z"/>
		<path style="fill:#1A1A1A;" d="M310.05,508.471c-8.539,2.142-17.098,4.231-25.647,6.34c8.972-1.742,17.943-3.519,26.916-5.304
			C310.381,509.229,310.064,509.043,310.05,508.471z"/>
		<path style="fill:#1A1A1A;" d="M488.492,568.976c-0.007,0.009-0.012,0.019-0.02,0.028c0.014,0.003,0.027,0.006,0.041,0.009
			C488.506,568.999,488.501,568.99,488.492,568.976z"/>
		<path style="fill:#1A1A1A;" d="M518.448,572.565c-0.056,0.02-0.109,0.045-0.165,0.067c0.055,0.105,0.406,0.312,0.97,0.593
			c0.068-0.204,0.116-0.414,0.122-0.639C519.067,572.578,518.758,572.571,518.448,572.565z"/>
		<path style="fill:#1A1A1A;" d="M834.898,511.051c-0.688-0.057-1.237-0.24-1.672-0.535c-9.13-0.782-18.362-0.553-27.497-0.089
			c0.789,1.032,0.817,2.114,0.083,3.246c12.498-0.365,24.705,0.102,37.141,1.544c0.218-0.173,0.563-0.138,0.728,0.082
			c3.712,0.444,7.406,1.058,11.044,1.922c1.014-1.6,1.018-3.354,2.164-3.457c-7.261-1.429-14.386-2.39-22.037-3.102
			C834.87,510.79,834.89,510.914,834.898,511.051z"/>
		<path style="fill:#1A1A1A;" d="M315.024,531.446l-0.002,0c-0.008,0.004-0.017,0.007-0.023,0.012
			C315.008,531.454,315.016,531.451,315.024,531.446z"/>
		<path style="fill:#1A1A1A;" d="M535.328,546.307c0.278-0.03,0.557-0.056,0.836-0.088
			C535.995,546.004,535.771,546.059,535.328,546.307z"/>
		<path style="fill:#1A1A1A;" d="M772.929,490.765l0.005,0.001C773.598,490.082,773.442,490.225,772.929,490.765z"/>
		<path style="fill:#1A1A1A;" d="M528.67,543.89c-0.072,0.009-0.145,0.018-0.216,0.027c-0.002,0.011-0.004,0.022-0.007,0.033
			C528.521,543.929,528.596,543.909,528.67,543.89z"/>
		<path style="fill:#1A1A1A;" d="M849.604,374.315c0.111-0.266,0.219-0.529,0.323-0.788
			C849.359,373.428,849.141,373.629,849.604,374.315z"/>
		<path style="fill:#1A1A1A;" d="M789.646,464.302c-0.06,0.057-0.118,0.113-0.178,0.17c0.079,0.016,0.156,0.032,0.236,0.046
			C789.684,464.448,789.666,464.375,789.646,464.302z"/>
		<path style="fill:#1A1A1A;" d="M305.548,606.742l-0.067,0.057c0.021-0.002,0.042-0.007,0.064-0.008
			C305.545,606.773,305.547,606.758,305.548,606.742z"/>
		<path style="fill:#1A1A1A;" d="M847.791,455.037c0.159,0.129,0.318,0.258,0.458,0.414
			C848.102,455.295,847.949,455.162,847.791,455.037z"/>
		<path style="fill:#1A1A1A;" d="M946.193,523.157c-0.056,0.061-0.103,0.121-0.175,0.182c-0.263-0.02-0.526-0.042-0.79-0.062
			c-0.06-0.111-0.121-0.222-0.184-0.333c-0.841-0.104-1.684-0.171-2.529-0.19c-0.01,0.483-0.221,0.93-0.426,1.379
			c-0.279,0.017-0.558,0.035-0.837,0.052c0.012-0.4,0.025-0.802,0.037-1.203c-0.142-0.047-0.279-0.101-0.414-0.161
			c-9.895,1.125-17.619,3.91-26.448,8.708c-13.728-7.981-31.541-11.604-46.791-15.342c0.029,0.039,0.051,0.067,0.081,0.107
			c0.848,0.202,1.697,0.402,2.545,0.601c-0.848-0.198-1.697-0.399-2.545-0.595c-0.624,0.526-1.247,1.048-1.872,1.571
			c-0.243-0.055-0.483-0.121-0.721-0.2c-0.271-0.432-0.538-0.865-0.81-1.292c0.328-0.24,0.665-0.491,0.959-0.77
			c-2.543-0.622-5.04-1.177-7.518-1.677c0.216,0.082,0.449,0.186,0.721,0.336c0.864,1.598-0.423,2.894-1.753,3.436
			c1.672,0.388,3.333,0.822,4.983,1.301c0.309-0.58,0.62-1.16,0.93-1.739c-0.31,0.578-0.621,1.159-0.93,1.739
			c16.383,4.43,32.584,9.811,49.037,13.933c-2.988,1.139-5.837,2.839-8.181,5c-29.758-15.7-70.186-21.529-103.412-18.206
			c0.226,0.271,0.417,0.588,0.531,1.006c0,0,0.024,0.002,0.035,0.003c0.004,0.012,0.004,0.025,0.007,0.037
			c1.085-0.074,1.798,0.36,2.14,1.305c29.123-1.389,59.219,3.375,86.862,12.441c1.338-0.78,2.317-0.479,2.825,0.911
			c3.334,1.063,6.646,2.221,9.941,3.404c-3.479,2.49-7.39,4.194-10.734,6.881c-29.372-12.196-62.95-15.905-94.38-15.682
			c0.848,0.69,1.283,1.138,1.304,1.582c32.474-0.484,60.553,8.676,91.905,15.09c-5.21,4.389-10.467,8.859-15.525,13.423
			c-6.54-3.052-13.935-4.156-20.787-6.284c-0.138,0.02-0.215-0.012-0.259-0.079c-43.453-13.349-89.579-11.499-133.505-1.798
			c-0.072,0.526-0.584,0.632-0.876,0.195c-0.789,0.175-1.578,0.357-2.366,0.542c-0.386,0.708-1.061,0.891-2.023,0.547
			c-0.671,0.308-1.34,0.617-2.011,0.925c-0.019,0.797-0.382,0.676-0.369-0.022c-0.089-0.106-0.181-0.21-0.272-0.316
			c-5.372,1.381-8.966,2.457-14.506,2.61c-0.44,0.338-0.864,0.351-1.274,0.04c-7.561,0.26-15.177,0.392-22.72,0.97
			c1.658-0.812,1.453-1.303-0.615-1.473c13.027-1.498,26.17-5.092,38.884-8.339c-0.004-0.086-0.009-0.17-0.012-0.256
			c0.286-0.067,0.57-0.129,0.782,0.057c9.158-2.342,18.197-5.102,27.397-7.273c-0.288,0.029-0.575,0.006-0.862-0.064
			c-0.258-0.681-0.335-1.371-0.233-2.067c-1.286,0.288-2.578,0.58-3.868,0.879c-0.319,0.417,0.221,0.856,0.484,1.287
			c-1.386,0.015-2.773,0.028-4.16,0.042c-0.274,0.276-0.55,0.552-0.824,0.826c-0.573-0.01-1.146-0.02-1.721-0.03
			c0.018-0.197,0.055-0.387,0.088-0.579c-19.23,5.358-39.002,10.178-58.76,12.897c-0.395,0.392-0.844,0.452-1.347,0.182
			c-0.475,0.072-0.948,0.138-1.425,0.197c-0.513,0.795-1.375,0.871-2.19,0.58c0.074-0.197,0.205-0.288,0.351-0.348
			c-2.702,0.348-25.018,2.001-25.099,3.024c-0.052,0.571,6.567,0.719,7.61,0.733c0,0,0.017-0.001,0.024-0.002
			c0.172,0.003,0.144,0.004-0.024,0.002c-15.227,1.213-30.681,1.506-45.917,0.177c-0.048,0.503,0.019,1.018,0.215,1.49
			c0.273,0.03,0.545,0.061,0.817,0.089c0.114,0.905,0.268,1.81,0.335,2.714c13.053,1.204,26.396,1.271,39.457,0.229
			c-17.106,3.725-34.048,5.59-51.565,3.108c-0.244,0.101-0.511,0.066-0.688-0.094c-3.004-0.409-36.059-6.074-36.308-4.84
			c0.644,0.426,1.288,0.853,1.932,1.278c0.865-0.106,1.688-0.39,2.464-0.849c0.831,0.282,1.66,0.565,2.489,0.849
			c-0.002,0.32-0.002,0.639-0.004,0.958c-0.075,0.19-0.141,0.387-0.213,0.579c2.046,0.558,4.107,1.381,6.173,1.773
			c-0.077-0.621,0.325-1.421,0.924-1.616c0.722,0.362,0.771,0.948,0.149,1.759c17.908,1.552,35.485,3.325,53.566,2.575
			c-8.834,2.704-16.97,6.631-26.203,6.939c-12.512,0.415-25.237-2.889-37.154-6.261c-0.033,0.563,0.064,1.179,0.061,1.752
			c-1.169-0.467-2.337-0.935-3.504-1.399c-0.416,0.128-0.831,0.254-1.246,0.382c-0.114-0.718-0.23-1.434-0.344-2.151
			c-25.308-7.036-51.421-12.404-77.586-14.799c-0.04,0.472-0.082,0.943-0.123,1.414c-0.054,0.051-0.107,0.099-0.162,0.15
			c24.759,2.3,49.447,7.401,73.381,14.134c-0.11-0.316-0.161-0.657-0.225-0.943c0.835-1.64,1.594,0.212,1.211,1.211
			c15.059,4.369,30.107,8.761,45.943,8.533c-5.143,1.929-10.225,3.987-15.269,6.162c-12.428-0.434-24.076-4.603-35.885-8.166
			c0.235,0.185,0.479,0.538,0.886,1.148c-0.762,0.214-1.542,0.274-2.344,0.183c10.596,3.602,21.719,8.193,32.983,8.691
			c-2.588,1.038-5.183,2.064-7.781,3.076c0.158,1.48-0.981,1.386-1.901,0.748c-0.873,0.345-1.697,0.669-2.447,0.964
			c-0.343-0.116-0.685-0.234-1.024-0.353c-0.017,0.015-0.033,0.03-0.051,0.046h-0.001c0.017-0.015,0.033-0.03,0.05-0.046
			c-8.443-2.987-16.141-4.275-24.461-8.149c-2.69-1.253-15.333-6.155-18.952-7.955c-0.044,0.132-0.091,0.264-0.162,0.388
			c10.618,10.073,27.912,13.282,41.525,17.249c-3.077,1.139-6.17,2.109-9.347,2.931c-15.859-5.477-30.287-14.128-46.031-19.911
			c-5.4-1.984-11.008-3.587-16.725-4.868c0.722,1.253,0.689,1.314-0.774,1.838c0.031-0.682,0.277-1.296,0.733-1.847
			c-14.073-3.151-28.831-4.299-42.948-3.976c0.262,0.288,1.713,1.779,1.056,2.624c25.45,1.872,52.107,1.801,75.057,14.974
			c-25.2-9.137-47.911-11.552-74.483-11.153l-0.296,0.188l-0.025-0.178c-14.02,0.377-28.01,1.199-41.661,4.606
			c1.433,0.422,0.388,1.577-0.095,0.025c-7.389,1.852-14.83,3.488-22.205,5.405c-16.027-1.934-32.999,2.514-48.686,5.492
			c0.005,0.039,0.01,0.077,0.015,0.118c-4.253,0.067-8.702,1.783-12.901,2.598c0.291,0.397,0.678,0.811,1.298,1.465
			c-0.182,0.2-0.387,0.382-0.597,0.557c5.829-1.307,11.585-2.86,17.442-4.061c-0.582-0.323-0.866-0.807-0.851-1.451
			c0.309-0.007,0.616-0.013,0.926-0.02c0.985,0.417,1.211,0.856,0.682,1.317c9.473-1.951,19.129-3.589,28.851-3.638
			c-0.143-0.245,0.025-0.578,0.424-1.268c0.336,0.373,0.543,0.801,0.654,1.265c1.135,0.049,2.267,0.027,3.397-0.067
			c-25.166,7.134-49.603,22.605-76.445,23.961c-0.21,0.91-1.117,0.925-1.396,0.103c-3.093,0.388-9.542,1.843-12.041,3.927
			c-2.985-1.063-5.94-2.2-8.936-3.241c4.949-1.697,10.617-3.461,15.348-5.689c-0.493-1.09-0.394-2.23,0.296-3.417
			c-5.846,3.167-12.12,4.278-17.572,8.427c-4.903-1.778-9.442-3.454-14.546-4.626c0.114,0.235,0.114,0.481,0,0.738
			c-1.196,0.671-5.263-0.281-4.603-1.885c-0.178-0.042-0.355-0.091-0.534-0.133c0.21-0.045,0.468-0.119,0.741-0.203
			c0.521-0.521,1.134-0.74,1.832-0.656c14.81-5.805,28.93-13.173,44.221-17.794c0.044-0.587,0.092-1.176-0.075-1.678
			c-8.526,2.491-16.893,5.608-25.156,8.862c-3.039,1.197-21.569,7.076-22.501,11.254c-3.925-0.89-7.847-1.798-11.775-2.675
			c-2.213-4.731-9.589-7.588-13.563-10.751c31.906-8.197,62.126-21.024,94.646-27.6c0.358-1.238,0.449-1.234,1.613-0.531
			c-0.311,0.131-0.623,0.262-0.932,0.393c31.659-6.4,62.899-5.728,94.519-9.681c0.189-0.129,4.129-2.371,3.128-0.007
			c2.123-0.057,4.252-0.041,6.381,0.001c0.023-0.027,0.035-0.059,0.061-0.086c0.018,0.034,0.03,0.057,0.049,0.087
			c6.829,0.14,13.682,0.288,20.503,0.651c6.463,0.343,21.63,4.811,26.688,0.614c-48.542-4.742-96.024-3.668-144.16,4.425
			c0.072,0.328,0.134,0.659,0.205,0.987c-0.481-0.129-0.964-0.259-1.445-0.389c-0.01-0.129-0.017-0.257-0.028-0.387
			c-33.154,5.531-72.549,13.613-101.74,31.126c-5.132-3.947-10.528-5.623-15.708-8.787c13.567-2.301,26.806-5.931,40.298-8.575
			c-0.178-1.307,0.197-2.366,1.129-3.182c0.259-3.851,6.631-1.868,4.199,2.21c23.172-4.018,45.935-10.28,68.959-15.06
			c-0.152-0.048-0.305-0.093-0.467-0.162c-0.017,0.009-0.021,0.01-0.01-0.003c0.004,0.001,0.006,0.002,0.01,0.003
			c0.229-0.123,3.08-2.134,2.785-0.319c21.813-4.53,43.633-9.14,65.724-12.13c0.005-0.597,0.778-0.725,1.267-0.18
			c9.191-1.229,18.367,0.378,27.667-1.174c0.588-0.822,1.177-0.922,1.767-0.298c5.871-1.021,11.177-1.021,17.153-0.888
			c0.2-0.496,0.328-1.016,0.305-1.592c-1.454,0.669-2.558,0.387-3.308-0.849c-0.318-2.102,3.34,0.39,3.226,0.311
			c2.174,0.276,2.548,0.007,2.413,2.203c0.072,0.002,0.145,0.004,0.217,0.005c-0.072,0.008-0.146,0.015-0.221,0.023
			c-0.05,0.787-2.22,3.273-3.28,2.496c-0.357-0.824-0.198-1.562,0.474-2.213c-5.825,0.588-11.55,1.497-17.316,2.489
			c23.292,0.881,46.509,2.81,69.739,4.628c17.405,1.364,33.734,5.146,51.116,8.25c-0.187-1.036-0.154-2.07,0.093-3.101
			c0.063-0.089,0.123-0.178,0.186-0.269c-3.924-0.669-7.879-1.366-11.88-2.109c3.297,0.188,6.594,0.367,9.89,0.523
			c0.109,0.298,42.912-7.277,47.943-8.176c5.185-0.928,48.056-10.006,48.688-7.837c1.015,3.474-81.566,15.65-88.822,16.348
			c1.635,0.062,3.269,0.116,4.905,0.168c-1.521,0.2-3.017,0.513-4.493,0.939c0.013,0.331,0.099,0.649,0.261,0.955
			c-0.039,0.064-0.084,0.116-0.127,0.173c13.494,3.325,29.94,0.609,43.625-0.027c17.478-0.812,34.976-3.451,52.337-5.618
			c40.26-5.028,78.634-18.277,117.82-28.156c-1.237-0.315-2.477-5.363-2.846-6.243c0.048-0.124,0.099-0.218,0.147-0.327
			c-5.507,3.867-11.293,6.915-17.462,8.392c8.636-5.287,16.646-11.602,24.714-17.705c3.078-2.328,25.957-24.522,27.152-22.25
			c-0.143,1.231-0.797,2.166-1.966,2.803c-9.663,8.056-19.582,19.253-30.601,27.43c1.148,0.358,2.306,2.273,2.958,3.348
			c-0.118,1.322,0.529,3.246-0.28,4.112c11.354-2.62,22.627-3.506,34.188-4.497c-0.53-0.567-0.599-1.162-0.209-1.783
			c-0.119-0.462-0.215-0.927-0.294-1.394c-8.771,0.809-17.391,1.354-26.089,2.872c8.642-4.334,16.817-8.77,24.51-13.257
			c-0.354-1.002-0.822-1.729-1.71-2.309c-0.209,0.202-0.451,0.417-0.768,0.676c0-6.421,2.771-7.166,3.805-0.173
			c0.331-0.069,0.599,0.116,0.802,0.553c1.298-0.767,2.585-1.535,3.854-2.306c-0.155-1.154,1.069-1.51,1.982-1.197
			c1.282-0.787,2.537-1.574,3.79-2.361c-1.065-1.202-2.284-3.14-2.822-4.542c0.212,0.552-1.873-9.498,0.866-5.598
			c0.314,0.39,4.038,8.592,4.048,8.826c1.344-0.856,2.669-1.712,3.981-2.57c-0.871-1.611-5.755-11.354-1.942-8.491
			c-0.169-1.071-0.536-13.065,0.915-12.335c2.383,1.194,1.069,11.259,0.608,13.245c1.011,0.632,2.311,4.857,2.698,6.074
			c6.711-4.451,12.969-8.896,18.78-13.285c-0.985-2.405-3.504-1.841-2.977-4.919c0.634-3.698,4.519,2.66,4.731,3.597
			c1.18-0.901,2.331-1.798,3.472-2.692c-0.587-1.053-5.491-6.747-4.844-7.82c2.105-3.488,6.384,4.726,6.91,6.18
			c1.159-0.923,2.299-1.843,3.417-2.758c-1.922-3.085-12.468-7.691-11.615-11.661c0.52-2.568,10.229,5.97,10.476,6.594
			c1.158,0.03,2.518,1.199,2.716,2.344c-0.069,0.437-0.291,0.678-0.661,0.721c0.188,0.259,0.382,0.516,0.577,0.77
			c1.404-1.164,2.779-2.321,4.118-3.468c-1.152-2.537-4.672-6.044-7.097-7.088c0.031,0.013,0.057,0.035,0.088,0.049
			c0.146,0.073,0.286,0.152,0.421,0.237c0.133,0.083,0.261,0.172,0.382,0.27c0.158,0.125,0.311,0.258,0.458,0.414
			c-0.14-0.156-0.299-0.285-0.458-0.414c-0.123-0.097-0.25-0.188-0.382-0.27c-0.136-0.085-0.272-0.169-0.421-0.237
			c-0.088-0.044-0.174-0.089-0.266-0.13l-0.121,0.084c-0.396,0.812-1.066,1.231-1.94,1.352c0.331-0.903,0.799-1.611,1.94-1.352
			l0.119-0.084c-1.54-0.683-3.19-2.025-4.288-3.298c-0.525,2.02-1.354,1.419-2.203-0.032c0.993-6.573,14.306,4.317,16.255,8.338
			c2.81-2.462,5.484-4.887,7.988-7.253c-1.018-0.632-10.395-6.323-9.159-7.805c1.914-2.294,9.285,5.425,10.606,6.415
			c1.292-1.239,2.546-2.464,3.754-3.669c-1.256-1.058-15.602-10.425-15.47-10.884c1.19-4.315,16.282,8.943,16.86,9.48
			c1.019-1.034,2.003-2.055,2.958-3.062c-1.638-2.042-20.813-12.907-20.834-12.795c0.866-5.168,20.431,9.426,22.181,11.373
			c4.141-4.443,7.637-8.578,10.508-12.313c-0.498-0.676-3.43-4.549-2.373-5.307c1.246-0.884,3.473,2.38,4.014,3.124
			c0.732-0.995,1.401-1.949,2.035-2.877c-1.248-1.017-10.616-11.034-9.295-12.204c2.526-2.238,8.91,9.172,10.336,10.643
			c1.268-1.947,2.301-3.717,3.102-5.292c-0.685-0.789-1.308-1.52-2.138-2.164c-0.804,2.602-4.423,2.154-4.578-0.681
			c0.116-1.415,1.196-2.444,2.503-2.351c-0.773-1.162-9.383-6.834-8.783-8.205c1.738-4.105,13.478,10.875,13.917,11.454
			c0.557-1.298,1.474-3.717,1.048-5.351c-1.192-0.795-15.006-13.196-15.201-12.569c1.006-3.627,11.616,5.56,11.787,5.708
			c-6.529-8.691-18.836-13.04-18.836-13.04s-7.106,29.118-49.082,66.383c14.666-16.517,25.927-34.893,38.667-52.789
			c-0.336-0.203-0.645-0.292-0.926-0.27c-0.589,1.12-1.189,2.232-1.813,3.331c0.352-2.156,0.956-3.265,1.813-3.331
			c7.282-13.848,11.778-29.248,11.724-44.991l1.336,0.496c-0.444-0.183-0.892-0.356-1.336-0.54
			c-0.003-0.664-0.019-1.021-0.019-1.021c-1.152,0.037-2.367-0.078-3.616-0.289l0.383,0.143l-20.829-0.947
			c0,0-10.847,20.468-24.639,42.805c1.216-0.713,2-0.395,2.354,0.955c-1.184,1.951-2.094,1.835-2.729-0.348
			c-10.31,16.66-21.347,32.64-34.276,47.38c0.367,0.033,0.735,0.059,1.104,0.082c-0.008-0.025-0.025-0.042-0.035-0.069
			c0.687,0.005,1.372,0.008,2.059,0.012c-0.086,0.432-0.172,0.865-0.258,1.298c-0.48,2.343-1.868,2.713-4.162,1.11
			c-0.494,1.172-1.442,2.015-2.699,2.075c-14.361,16.058-28.109,29.735-41.027,41.371c0.262,0.116,0.467,0.286,0.624,0.498
			c15.98-11.622,31.846-24.334,45.716-38.507c4.361-4.456,41.697-49.868,40.648-50.568c4.897,3.269-30.533,41.294-33.955,45.785
			c0.202,0.101,0.403,0.202,0.605,0.303c-0.044,0.129-1.022,2.533-1.532,0.937c-14.938,20.595-38.448,33.906-57.1,50.618
			c2.413-0.624,0.291,2.408-0.59,0.528c-12.919,11.472-30.271,19.553-46.024,26.088c-0.337,0.53-0.871,0.748-1.601,0.656
			c-29.42,11.983-59.077,14.585-90.481,17.52c11.267-2.518,22.412-4.801,33.454-7.321c-1.072-0.7-1.036-0.825,0.119-1.58
			c0.005,0.515,0.011,1.033,0.016,1.55c16.579-3.787,32.924-8.119,49.079-14.628c-2.725-2.248,3.316-5.042,2.25-0.915
			c3.219-1.324,6.219-2.61,8.974-3.848c-10.132,0.619-20.325,0.858-30.467,1.364c-0.799,0.917-5.021,5.207-5.652,5.18
			c-2.227-0.098,3.654-7.568,0.708-4.857c-1.975,0.163-4.136,0.363-6.505,0.565c0.217,0.441,0.305,0.932,0.195,1.495
			c-0.536-0.333-0.929-0.797-1.007-1.426c-0.863,0.072-1.727,0.15-2.589,0.236c-0.254,0.506-0.654,0.917-1.304,1.162
			c0.032-0.393,0.125-0.745,0.251-1.074c-11.582,0.932-23.192,0.974-34.787,1.961c-0.896,1.465-1.848,1.542-2.854,0.232
			c-6.893,0.503-13.799,0.965-20.698,1.332c-0.658,2.785-0.107,5.494-1.788,8.03c-3.003-1.367-1.13-4.981-1.893-7.877
			c-24.076,0.904-48.203,3.718-72.19,5.956c-20.035,1.872-40.228,6.211-60.301,4.303c20.869-2.504,41.81-5.114,62.732-7.159
			c-0.899-0.183-0.683-0.356-1.384-1.259c0.41-1.471,5.18-5.274,6.542-2.766c0.298,1.667-0.409,2.909-2.12,3.73
			c21.854-2.139,43.738-5,65.686-5.978c1.087-0.506,2.112-1.115,3.076-1.826c0.594,0.045,1.186,0.091,1.777,0.136
			c-0.354,0.459-0.413,0.947-0.173,1.466c20.035-1.165,40.12-2.521,60.133-3.901c0.16-0.367,0.433-0.679,0.876-0.911
			c-0.147-2.196,2.479,1.147,0.483,0.6c0.015,0.067,0.03,0.135,0.043,0.202c3.291-0.259,6.764-0.525,10.346-0.669
			c0.54-1.283,2.287-1.894,2.932-0.081c10.748-0.25,21.493-0.592,32.183,0.809c4.148-1.919,7.683-3.711,10.552-5.339
			c-14.028,0.146-184.47,6.268-184.176,9.116c-0.166-1.658,13.601-2.603,15.669-2.82c1.076-2.634,4.216-1.776,5.548-0.545
			c12.817-1.16,25.653-2.412,38.491-3.326c-1.13-1.519,3.794-1.717,4.264-1.515c-0.937,0.474-1.87,0.952-2.812,1.413
			c11.497-0.819,23.008-2.477,34.536-2.689c0.019-0.042,0.037-0.084,0.056-0.126c0.049,0.037,0.119,0.079,0.18,0.119
			c30.543-0.701,61.376-5.882,91.914-1.855c2.479-1.626,4.956-3.451,7.42-5.417c0.185-0.717,0.522-0.987,1.017-0.816
			c5.102-4.164,10.131-8.95,14.955-14.007c-0.788-0.012-1.276-0.407-1.466-1.189c0.785-0.997,1.831-1.19,3.138-0.583
			c2.751-2.948,5.432-5.97,8.014-9.002c-35.066,0.52-70.204-1.598-105.354-0.898c-9.424,0.186-96.417,8.745-96.601,7.055
			c-0.289-2.745,87.303-8.896,96.586-9.283c34.664-1.445,72.541-6.279,106.679,1.577c6.856-8.159,12.968-16.282,17.854-23.054
			c-0.92-0.086-1.628-0.543-1.914-1.744c1.324-0.553,2.007,0.028,2.54,0.872c2.709-3.772,5.024-7.1,6.843-9.723
			c-5.717-0.158-11.424-0.49-17.142-0.627c-0.342,0.207-0.67,0.459-0.971,0.805c0,0.634-0.002,1.268-0.002,1.904
			c0.424,0.168,0.847,0.338,1.271,0.508c-0.424-0.17-0.847-0.34-1.271-0.508c-0.362,0.538-0.727,1.078-1.093,1.616
			c-0.558-0.762-0.697-1.646-0.729-2.56c0.491-0.503,1.066-0.936,1.824-0.962c0.301-0.346,0.629-0.597,0.971-0.804
			c-9.542-0.227-19.084-0.908-28.619-1.058c0.093,0.553,0.188,1.105,0.279,1.658c-0.403,0.879-0.755,1.779-1.053,2.699
			c0.235-0.713,0.701-0.661,2.277-0.425c0.299-0.698,7.152,0.799,7.29,1.216l-9.425,1.757c0.293,1.813,0.549,5.413-2.113,5.738
			c-1.441,0.175-0.908-2.613-1.118-3.165c-2.168-0.595-2.168-0.595-0.854-2.509c1.108-0.177,1.13-0.945,0.983-1.806
			c1.702-0.639,0.202-2.632-0.15-3.685c-0.235,0.212-0.548,0.456-0.96,0.772c-0.863-0.552-1.46-1.287-1.788-2.205
			c-34.68,0.785-69.009,2.45-103.551,6.089c-0.042,0.629-0.101,1.259-0.203,1.888c-0.954,0.476-1.907,0.95-2.861,1.426
			c-0.767-0.848-0.904-1.828-0.415-2.943c-2.059,0.225-4.104,0.461-6.138,0.703c-0.479,0.836-0.949,0.893-1.406,0.168
			c-17.217,2.163-34.417,5.097-51.661,6.925c-0.864,0.446-1.369,1.14-1.517,2.085c-0.276-0.008-0.551-0.007-0.826,0.007
			c0.135-0.643,0.048-1.243-0.111-1.828c-7.507,0.824-14.897,2.134-22.332,3.427c4.172,2.245-4.146,0.467-3.693,0.627
			c-1.644,0.262-3.287,0.538-4.929,0.827c0.51,0.934,1.134,4.84,1.206,5.198c0.238,1.344-0.199,2.253-1.313,2.731
			c-0.198,0.034-3.987-6.266-4.347-7.157c-3.054,0.533-45.799,7.221-45.853,5.604c-0.153-3.93,73.97-13.78,80.924-14.479
			c0.669-1.786-1.791-2.235-2.93-1.369c-0.249-0.034-0.496-0.069-0.741-0.108c-0.021-0.296-0.037-0.59-0.056-0.884
			c-6.885,1.012-13.753,2.03-20.605,3.234l-0.063,0.084l-0.032-0.069c-2.202,0.387-4.386,0.77-6.548,1.15
			c-0.069,1.717-2.455,1.757-1.959,0.345c-34.628,6.086-68.9,13.391-103.38,20.227c-0.131,1.056-0.294,2.107-0.494,3.151
			c3.788-0.905,34.014-3.957,34.387-4.778c-2.171,4.778-29.391,6.177-34.803,7.376c-0.07,0.616-0.122,1.256-0.117,1.966
			c-0.868-0.41-1.517-0.923-2.061-1.483c-9.033,2.013-17.911,4.466-26.897,6.659c0.355,0.284,0.713,0.567,1.053,0.863
			c-0.04,0.999-0.081,1.998-0.121,2.997c-1.63,0.494-2.967,1.858-4.838,1.643c-0.41-1.865,0.555-2.584-0.253-4.527
			c-15.836,3.558-31.562,7.295-47.279,11.324c-0.672,1.108-1.408,1.298-2.209,0.568c-6.306,1.625-12.547,3.503-18.854,5.119
			c0.087,0.439,0.173,0.877,0.26,1.316c26.571-5.287,53.153-10.641,79.79-15.355c7.19-1.273,79.06-13.454,79-10.689
			c-0.049,3.207-136.894,25.042-147.055,26.91c0.251,0.235,0.554,0.587,0.966,1.068c-1.001-0.049-1.998-0.097-2.997-0.146
			c0.214-0.261,0.389-0.467,0.547-0.647c-16.681,3.069-33.55,6.025-50.356,8.328c0.601,0.523,1.118,1.192,1.532,2.053
			c-2.335-0.543-3.584,1.049-4.947-1.587c-0.204,0.029-0.416,0.057-0.621,0.084c-2.019,1.884-4.045,3.76-6.056,5.652
			c17.412-3.268,34.969-6.532,52.483-9.165c1.648-1.994,3.457-2.255,5.43-0.784c3.455-0.503,6.891-1.071,10.314-1.747
			c-0.095-0.094-0.188-0.188-0.283-0.282c-1.338,0.039-2.677,0.079-4.016,0.119c-0.089-0.609-0.178-1.217-0.266-1.828
			c0.3-0.091,0.597-0.182,0.896-0.274c1.355,0.346,3.069,0.092,3.385,1.983c0.095,0.094,0.189,0.188,0.283,0.282
			c18.586-3.533,36.881-8.319,55.396-12.106c8.767-1.794,17.617-3.252,26.413-4.9c8.187-1.535,20.305-1.048,27.604-4.693
			c-0.005,0.071-0.007,0.143-0.009,0.215c9.86-1.554,135.092-19.469,135.092-15.757c-0.007,2.356-130.944,18.196-141.493,19.681
			c-39.521,5.56-78.046,16.284-117.533,21.855c-0.948,1.3-1.063,1.36-2.351,0.34c-18.125,2.748-36.224,6.326-54.232,9.76
			c-2.292,2.129-4.6,4.238-6.931,6.318c13.185-2.141,26.285-4.771,39.524-6.542c0.108-0.189,0.228-0.379,0.352-0.567l-0.068-0.19
			c0.075,0.24,0.189,0.466,0.34,0.673c28.797-3.87,57.733-10.785,86.063-17.121c-0.175-0.654-0.173-1.354-0.213-2.04
			c0.56,0.281,1.121,0.562,1.682,0.843c0.033,0.281,0.075,0.562,0.112,0.844c24.75-5.58,49.963-9.994,75.03-13.943
			c11.685-1.84,23.348-3.839,35.135-4.912c5.171-0.471,24.401-5.143,27.985-2.393c-0.53-0.405-14.318,3.859-16.303,4.181
			c-7.085,1.147-14.256,1.64-21.355,2.67c0.175,1.397-0.284,2.2-1.374,2.408c-0.718-0.515-0.82-1.233-0.31-2.157
			c-19.834,3.023-39.618,6.249-59.39,9.656c0.447,0.222,0.892,0.446,1.34,0.669c0.623,1.071,0.535,1.907-0.264,2.506
			c-1.32-0.286-1.791-1.325-1.409-3.118c-25.743,4.443-51.309,9.562-76.92,14.703c0.38,0.858,0.513,1.778,0.398,2.758
			c-0.387,0.338-0.773,0.674-1.161,1.013c31.586-5.698,63.571-10.872,94.998-17.18c-0.173-0.619,1.935-1.757,1.837-0.365
			c9.584-1.959,19.25-3.145,28.927-4.521c0.084-0.062,0.17-0.126,0.254-0.19c0.014,0.051,0.023,0.099,0.037,0.15
			c26.118-3.651,52.32-7.088,78.548-9.871c-0.064-0.077-8.729-4.786-3.675-5.518c1.086-0.158,1.302,1.912,1.589,2.538
			c1.399,0.04,2.776,0.558,4.196,0.203c0.804,0.833,0.764,1.665,0.533,2.496c1.358-0.146,2.719-0.286,4.079-0.419l0.017-0.082
			l0.104,0.069c11.977-1.17,23.94-2.467,35.933-3.466c0.445-0.582,0.893-1.164,1.339-1.746c0.82,0.106,1.113,0.626,0.878,1.561
			c0.922-0.077,1.859-0.156,2.77-0.232c0.326-0.318,0.706-0.513,1.144-0.584c0.3-0.382,0.841-0.551,1.567-0.561
			c0.143-0.283,0.284-0.565,0.429-0.848c0.148-0.019,0.298-0.032,0.447-0.041c-0.178-1.782,2.878-2.033,2.543-0.017
			c0.303,0.005,4.236-1.115,4.491-0.683c0.465,0.78-0.497,1.734-1.151,2.005c10.104-0.636,126.841-8.625,127.104-1.505
			c-0.043-1.389-112.665,4.061-125.119,4.591c0.021,0.262,0.059,0.523,0.11,0.78c0.414,0.054,0.835,0.076,1.241,0.165
			c-0.406-0.089-0.827-0.111-1.241-0.165c-0.865,1.84-2.371,4.138-2.761,1.179c-1.095,0.118-1.709,0.742-2.203,1.507
			c1.682,0.991,0.316,3.345-0.817,1.416c-0.227,0.39-0.473,0.765-0.778,1.083c-0.945-2.196-0.095-3.918,0.58-5.646
			c-0.229,0.017-0.475,0.035-0.712,0.052c-0.313,0.234-0.581,0.254-0.805,0.061c-16.529,1.212-33.042,2.694-49.537,4.302
			c0.092,0.928-0.268,1.038-1.832,1.471c0.088-0.441,0.175-0.88,0.263-1.32c-26.37,2.571-52.758,5.699-79.014,9.217
			c-0.198,3.35-0.435,11.568-3.906,13.208c0.022-3.853-2.475-9.11,0.175-12.713c-40.204,5.232-79.517,14.279-119.324,21.591
			c-0.122,0.723-0.563,1.137-1.321,1.241c0.045-0.341,0.091-0.683,0.136-1.024c-7.593,1.401-21.113,1.452-28.063,5.227l0.002,0
			c-0.009,0.005-0.017,0.008-0.025,0.012c0.007-0.004,0.016-0.008,0.023-0.012c-0.248,0.045-0.486,0.085-0.732,0.127
			c2.011,0.541,3.247,1.221,4.49,2.935c33.664-5.304,67.48-10.516,101.338-14.43c0.442-0.817,1.011-0.881,1.707-0.192
			c5.855-0.631,11.709-1.298,17.583-1.72c0.06-0.538,0.293-1.022,0.7-1.453c0.462,0.8,0.627,1.125,0.336,1.382
			c0.895-0.059,15.879-0.865,15.85,0.045c-0.077,2.786-70.436,10.271-76.871,10.904c-0.294,0.991-2.073,0.609-2.579,0.242
			c-48.309,4.31-95.91,15.355-144.006,20.834c-2.511,1.845-5.385,3.165-7.939,4.946c12.77-1.959,25.573-3.219,38.301-5.481
			c0.11-1.63,1.35-2.112,1.682-0.299c23.408-4.046,46.973-6.868,70.447-10.435c0.455-1.009,2.078-0.648,2.741-0.417
			c26.654-4.05,53.242-9.101,80.072-11.91c-3.748-1.241,4.013-2.383,2.033-0.214c13.321-1.381,26.593-3.392,39.836-5.361
			c-0.804-2.94,4.316-1.152,5.353-0.71c7.921-0.905,87.996-9.678,88.011-7.645c-1.155,0.587-2.393,0.917-3.711,0.989
			c-0.079,0.114-0.16,0.228-0.239,0.341c0.079-0.113,0.16-0.227,0.239-0.341c-26.765,4.932-54.455,6.742-81.524,9.701
			c-2.637,1.874-10.798,1.389-13.618,1.774c-9.915,1.361-19.858,2.716-29.813,3.777c-0.221,0.283-0.777,0.379-1.034,0.109
			c-13.973,1.426-27.857,3.444-41.797,5.148c2.601,1.115-3.371,1.569-0.977,0.119c-1.087,0.133-2.185,0.267-3.258,0.399
			c0.072,0.19,0.104,0.39,0.097,0.6c-0.542-0.195-0.885-0.324-1.068-0.476c-11.914,1.554-23.768,3.772-35.67,5.454
			c0.55,0.298,0.846,0.752,0.886,1.366c-1.682,2.168-4.402,1.764-6.104-0.627c-23.565,3.328-47.167,6.11-70.6,10.388
			c0.077,0.642-0.024,2.911-1.278,2.632c-0.785-0.479-1.036-1.233-0.754-2.26c-13.749,2.605-27.646,4.118-41.456,6.382
			c-2.489,3.673-4.25,6.757-9.362,6.168c9.364-8.378,18.748-16.734,28.145-25.072c0.076-0.474,0.186-0.345,0.682-0.621
			c0.005,0.002,0.006,0.007,0.006,0.007c44.801-39.736,89.981-79.042,135.539-117.904c9.73-8.301,19.478-16.581,29.244-24.84
			c0.765-0.646,1.53-1.292,2.295-1.936c0.081-0.528,0.745-1.409,1.322-1.115c7.778-6.572,15.561-13.141,23.362-19.687
			c4.009,1.846,11.981,8.279,16.288,2.963c4.371-5.396-2.087-10.738-6.541-13.042l-6.607,1.231c-0.275,0.774-0.55,1.545-0.823,2.319
			l-0.002-0.002c0.801-2.243,0.14-5.832,3.223-5.373c-1.99-0.725-4.056-1.312-6.087-1.788c-0.056,0.042-0.098,0.076-0.154,0.119
			c-0.067-0.067-0.137-0.133-0.204-0.2c-5.131-1.167-10.945-2.3-16.26-1.759c0.224,0.166,0.375,0.435,0.482,0.753
			c0.174,0.106,0.347,0.21,0.52,0.316c-0.185-0.094-0.368-0.185-0.553-0.278c-0.204,0.07-3.179,1.125-2.321-0.442
			c-6.274,1.865-3.021,9.19-3.021,9.19s3.617,0.454,8.455,1.564c-10.248,8.676-20.475,17.378-30.685,26.096
			c1.561,1.972,0.667,5.406-1.467,6.126c0,0,0.003,0.01,0.005,0.015c0,0-0.009,0-0.014,0c0-0.003,0-0.008,0-0.008l0.009-0.007
			c-0.582-1.258-0.949-2.568-1.099-3.93c-7.433,6.348-14.861,12.703-22.275,19.075c2.511,0.394-1.339,5.449-3.167,2.731
			c-3.084,2.652-6.159,5.311-9.24,7.966c5.199,2.038-5.449,5.832-3.572,3.079c-1.533,1.325-3.072,2.647-4.605,3.974
			c1.433-0.486,2.535-0.239,3.309,0.737c0.14,1.021-3.484,1.115-3.787,1.157c0.083,0.232,0.167,0.464,0.249,0.698h-0.001
			c-0.083-0.232-0.165-0.466-0.248-0.698c-0.672,0.151-1.349,0.241-2.031,0.271c-3.268,2.825-6.529,5.659-9.796,8.491l0.007,0.007
			l-0.01,0.002c-0.711,0.612-0.784,2.363-2.306,1.998c-6.892,5.978-13.781,11.962-20.656,17.962
			c0.822,0.042,1.643,0.086,2.464,0.113c0.321,0.21,0.641,0.42,0.96,0.631c-0.033,0.547-0.068,1.095-0.103,1.641
			c-0.247,0.04-0.494,0.076-0.741,0.108c-2.23-1.693-3.382,0.543-2.562,2.215c-0.242,1.407-1.133,2.691-0.816,4.206
			c-0.275-0.013-0.551-0.017-0.826-0.007c-0.852-2.45-1.136-3.525-1.672-6.022c-14.901,13.014-29.768,26.068-44.592,39.171
			c0.202,0.033,0.4,0.074,0.607,0.089c1.714-1.88,2.138-1.863,4.122-0.229c0.275,0.076,0.554,0.15,0.83,0.225
			c0.024,0.343,0.048,0.688,0.071,1.031c-1.053,0.089-2.105,0.177-3.16,0.266c-0.114,0.145-0.23,0.287-0.347,0.43
			c-1.266,0.042-2.481-0.153-3.679-0.44c-18.102,16.009-36.146,32.083-54.129,48.225c0.016-0.385,0.049-0.775,0.126-1.177
			c-0.786,0.133-1.577,0.257-2.367,0.375c0.269,0.708,0.515,1.424,0.734,2.149c-0.921,0.829-1.838,1.663-2.759,2.491
			c0.031,0.055,0.059,0.118,0.078,0.193c-0.087-0.012-0.185-0.01-0.277-0.013c-10.584,9.51-21.155,19.033-31.696,28.59
			c-11.867-0.001-23.597,0.944-35.251,3.091c0.768,1.406-3.123,3.935-3.712,4.446c-2.348-0.459-0.552-3.123,0.507-3.816
			c-4.548,0.975-35.692,7.717-34.058,11.731c1.095,2.721,28.077-4.411,32.102-5.25c14.442-3.015,28.492-4.79,43.255-5.415
			c-0.169-0.352-0.298-0.75-0.435-1.11c-0.001,0.002-0.003,0.002-0.003,0.002s-0.002-0.002-0.002-0.003h0.004l0.001,0.002
			c0.785-0.528,1.572-1.056,2.353-1.581c0.591,0.772,0.769,1.648,0.537,2.63c30.122-0.874,59.373,6.757,88.17,14.673
			c-0.619-1.52-0.343-2.496,0.826-2.93c1.661,0.947,2.12,2.158,1.374,3.631c7.197,2.58,14.077,5.941,21.399,8.215
			c0.455-0.227,2.162-0.066,2.083,0.648c1.868,0.659,3.761,1.236,5.675,1.734c-1.728,0.953-3.46,1.904-5.192,2.849
			c0.375,0.715,0.775,1.416,1.201,2.102c-0.938,0.881-2.254-0.742-2.781-1.229c-5,2.803-49.265,25.417-47.678,28.531
			c2.354,4.656,69.427-34.083,75.687-37.261c16.585-8.422,33.46-16.655,50.901-23.162c9.054-3.378,18.377-5.84,27.719-8.289
			c3.565-0.935,19.555-7.472,22.38-5.605c24.313-3.928,51.705-4.779,75.858,0.446c5.496,1.189,50.642,19.354,52.134,17.249
			c-0.536-0.728-1.074-1.456-1.61-2.186c1.852,0.834,3.795,1.423,5.748,1.973c-10.697,2.452-20.988,5.339-31.957,6.249
			c-0.647,2.05-4.127,2.371-3.631,0.276c-1.366-0.099-2.587,0.224-3.661,0.969c-0.547,6.182,44.146-2.605,47.232-3.476
			c15.989-4.512,31.042-12.535,46.495-18.559c0.094-0.57,0.392-1.048,0.848-1.455c0.177,0.478,0.284,0.787,0.305,1.017
			c0.629-0.243,1.261-0.473,1.892-0.712c-0.192-0.045-0.343-0.502-0.358-1.683c0.104-0.183,0.224-0.585,0.491-0.815
			c1.313-1.133,0.641,1.9,0.058,2.426c26.656-10.077,53.93-16.574,82.449-18.248c-0.109-0.109-0.207-0.239-0.278-0.409
			c0.733-0.363,1.143-0.246,1.228,0.352c11.658-0.679,23.664-1.942,35.345-1.566c4.167-3.161,22.696,1.48,28.251,2.021
			c0.067-1.719-1.818-3.777,1.261-4.687c-13.093,1.32-26.389-1.16-39.672-0.573c18.098-3.101,36.161-7.633,54.505-9.182
			c1.393-1.187,2.832-1.258,4.339-0.33c9.384-0.683,18.898-0.683,28.29-0.129c0.256-0.121,0.369-0.116,0.339,0.019
			c7.042,0.427,14.575,0.911,21.49,2.322c-0.519-2.237,5.272-0.661,2.223,0.474c3.589,0.858,7.194,1.64,10.816,2.346
			c0.328-0.727,1.399-0.321,1.455,0.321c12.032,2.709,23.666,7.379,35.845,9.453c-3.594,3.846-8.138,6.811-11.506,10.749
			c-0.445,1.191-0.656,2.435-0.629,3.732c-0.822-0.172-1.642-0.241-2.457-0.093c-0.072,0.087-0.163,0.185-0.227,0.271
			c-0.108-0.047-0.217-0.091-0.327-0.134c-0.037,0.012-0.074,0.015-0.113,0.029c-0.001-0.025-0.005-0.052-0.008-0.077
			c-17.791-7.197-38.641-11.539-57.667-13.423c0.1,1.209-0.395,1.84-1.483,1.892c-0.59-0.496-0.297-1.692,0.302-2.013
			c-11.229-1.118-22.445-2.31-33.698-3.177c6.567-0.894,13.24,0.099,19.862-0.193c-0.112-0.114-0.215-0.293-0.327-0.422
			c-0.042-0.75,0.164-1.434,0.551-2.047c-10.044,0.168-19.953-0.879-29.992,0.002c0.916,0.372,4.062,4.332,3.631,5.415
			c8.771,0.769,17.582,1.525,26.318,2.635c-0.522-0.244-0.971-0.706-1.357-1.361l0.003-0.002c-0.313-0.372-0.324-0.543-0.033-0.513
			c0.135-0.012,0.252,0.054,0.353,0.2c0.224-0.025,3.846-1.068,4.083,0.212c0.152,0.827-1.239,1.483-1.9,1.613
			c2.05,0.266,4.102,0.521,6.153,0.767c0.392-0.604,0.725-1.357,1.545-1.513c0.683,0.41,0.977,1.009,0.883,1.796
			c17.654,2.018,35.383,6.234,52.496,10.998c-0.882-3.023,1.749-1.185,2.774-0.599c-0.322,0.643-0.748,0.945-1.239,1.033
			c2.677,0.772,19.544,8.013,20.85,6.002c0.99-1.515-7.52-5.306-8.156-5.598c6.96-2.66,11.874-8.746,16.917-13.84
			c8.3-8.381,18.723-15.058,26.682-23.463c0.74,0.19,0.852,0.074,0.339-0.348c4.651-4.689,15.853-8.878,21.936-10.586
			c3.048-0.854,19.979-0.871,20.502-4.295C947.758,523.855,947.135,523.298,946.193,523.157z M571.085,564.437
			c0.603-0.948,1.076-0.903,1.418,0.136C571.874,565.555,571.401,565.51,571.085,564.437z M287.855,601.463
			c0.063-0.024,0.173,0.071,0.262,0.113c-0.042,0.091-0.086,0.182-0.129,0.273C287.697,601.801,287.653,601.673,287.855,601.463z
			 M771.988,515.097l0.101-0.294l0.218,0.242L771.988,515.097z M775.599,507.1c0.281-0.067-5.307,0.218-4.15-1.382
			C772.99,503.584,777.731,506.587,775.599,507.1z M876.125,415.271c1.762-3.51,10.356,8.385,5.015,6.908
			C879.672,421.772,875.795,415.93,876.125,415.271z M859.441,454.654c-1.46-0.034-8.347-5.06-7.983-6.178
			C852.749,444.591,863.197,454.741,859.441,454.654z M842.331,443.957c0.197,0.222,0.149,0.356-0.145,0.402
			C841.99,444.137,842.037,444.002,842.331,443.957z M747.717,518.593c-0.338,0.649-2.632-0.889-2.583-1.389
			C745.547,516.894,748.043,517.945,747.717,518.593z M752.398,513.097c-0.256-0.072-0.438-0.217-0.55-0.432
			c0.111,0.215,0.294,0.36,0.55,0.431V513.097z M749.42,511.764c-0.073,0.464-0.392,1.214-0.999,0.886
			c-2.329,2.114-4.889,3.58-7.538,5.23c-0.002,0.077-0.013,0.158-0.036,0.168c-0.079,0.033-0.176,0.027-0.273,0.022
			c-5.519,3.469-7.928,5.79-14.387,7.176c1.422-2.958,5.413-4.916,8.139-6.703c0.226-0.749,0.705-1.06,1.438-0.932
			c3.738-2.388,7.926-3.975,11.478-6.653c-0.298-1.226,1.523-3.205,1.969-1.522c1.638-1.275,12.999-11.006,14.489-9.313
			C765.208,501.838,750.635,510.687,749.42,511.764z M805.62,494.161c-0.469,0.673-1.104,1.105-1.903,1.293
			C796.029,494.029,809.817,483.806,805.62,494.161z M861.883,399.338l-0.095-0.579l0.647,0.2L861.883,399.338z M870.974,367.341
			c5.965,2.41-31.027,62.954-33.786,66.877c-3.448,4.899-32.166,42.683-35.762,38.659c0.066,0.07,41.573-50.869,43.085-53.494
			c-5.783,2.657,0.603-7.132,1.604-2.793c8.101-14.082,14.983-28.128,21.246-43.126C867.571,372.943,869.785,366.86,870.974,367.341
			z M784.611,467.463c-0.047,1.65-0.715,2.983-2.003,4.003C782.555,469.796,782.499,467.934,784.611,467.463z M781.13,475.28
			c1.604-3.875,4.807-7.423,8.339-10.807c-0.898-0.179-1.716-0.485-2.116-1.449c0.604-0.735,1.253-1.177,1.864-0.05
			c0.22,0.402,0.31,0.874,0.43,1.329c3.935-3.753,8.255-7.305,11.24-10.871c-0.03-0.249-0.053-0.501-0.093-0.745
			c-1.455-2.284,1.479-1.917,1.815-1.226c9.737-10.922,19.036-22.096,27.199-34.242c8.634-12.846,14.025-27.452,21.893-40.685
			c-1.119-1.024-1.773-1.738-2.097-2.219c-2.287,5.479-5.934,12.326-6.318,13.217c-1.236,2.855-9.719,14.415-8.264,10.013
			c1.053-3.538,15.649-30.337,16.053-30.166c0.858,0.368,0.14,2.949-1.147,6.148c2.063,0.359,8.668,4.655,3.292,3.807
			c-2.054,12.794-13.569,27.66-20.339,38.307c-8.514,13.389-17.6,26.217-28.08,38.188c1.57-0.099,0.104,3.683-2.347,2.884
			c-2.399,3.007-5.13,5.718-7.706,8.568c0.052,0.045,0.103,0.069,0.156,0.118c0.275,3.589-0.325,4.418-3.316,3.18
			C790.178,469.858,780.198,477.557,781.13,475.28z M780.215,470.885c0.367,0.145,0.531,0.486,0.574,0.948
			c-0.335-0.343-0.672-0.684-1.008-1.026C779.949,470.81,780.094,470.836,780.215,470.885z M779.963,473.152
			c0.042,0.281,0.084,0.565,0.126,0.846c-0.28,0-0.56,0-0.841,0C779.487,473.717,779.724,473.433,779.963,473.152z M763.075,488.382
			h0.002c0.16,0.316,0.208,0.624,0.086,0.92c0.038-0.366-0.005-0.716-0.132-1.048C763.047,488.296,763.063,488.339,763.075,488.382z
			 M713.328,524.822c3.75-2.546,7.819-4.51,11.654-6.913c-0.03-0.131-0.059-0.267-0.093-0.395c0.298-0.901,0.911-1.816,1.867-0.715
			c6.124-3.838,11.839-8.181,18.066-11.837c0.011-0.686,0.424-1.006,1.241-0.959l0.03,0.023c0.054,0.007,0.111,0.009,0.167,0.015
			c3.792-2.704,7.808-5.869,11.254-8.938c-4.333-2.008-2.997-3.747,1.156-4.549c0.557,0.863,0.826,1.769,0.808,2.721
			c3.408-3.291,7.076-6.676,10.961-9.395c-0.003-0.008-0.01-0.015-0.01-0.015c0.012-0.01,0.028-0.01,0.045-0.01
			c0.602-0.419,4.635-2.346,2.848,0.296c1.852,0.5,3.098,1.5,3.669,2.906c22.363-19.554,44.629-42.424,60.347-67.753
			c-0.769,0.195-0.713-0.25-1.266-0.905c0.173-0.262,1.68-2.662,2.043-0.345c1.763-2.906,3.555-5.862,5.207-8.844
			c-3.153-0.826,0.783-3.466,1.556-2.985c1.948-4.072,18.277-37.056,18.845-36.807c2.49,1.098-9.695,25.553-11.303,28.198
			c1.16-0.264,1.945,0.254,2.354,1.552c-0.896,1.439-2.22,1.707-3.971,0.804c-8.39,11.383-15.221,24.489-23.351,36.237
			c-7.999,11.562-17.292,21.499-26.471,32.101c0.045,0.063,0.092,0.12,0.131,0.199c-0.074-0.032-0.148-0.064-0.222-0.096
			c-7.05,8.168-14.942,16.1-23.756,22.346c-0.06,0.839-0.664,1.268-1.81,1.288c-0.799,0.585-1.597,1.174-2.39,1.766
			c0,0,0.006,0.008,0.01,0.013c-0.009,0-0.016-0.003-0.023-0.003c-1.11,1.041-2.401,1.717-3.873,2.025
			c-0.383-0.49,2.703-3.845,3.88-5.083c-0.349-0.11-0.712-0.187-1.101-0.202c-1.387-2.117,2.47-2.366,0.014-4.761
			c-3.846,3.723-8.269,6.876-12.361,10.327c0,0.108,0,0.214,0.002,0.321c-0.062-0.062-0.13-0.104-0.19-0.161
			c-9.563,7.99-19.721,15.672-29.991,22.718c-0.249,1.695-1.139,2.302-2.671,1.82c-2.008,1.364-14.189,9.132-15.622,6.495
			C711.354,526.157,712.126,525.323,713.328,524.822z M631.946,531.687c1.155,0.074,2.056,0.528,2.499,1.668
			C632.488,533.669,632.488,533.669,631.946,531.687z M648.981,526.847c1.384-1.406,1.505-1.403,2.525,0.037
			c-0.844-0.01-1.689-0.02-2.532-0.03L648.981,526.847z M645.068,523.786c0.794,0.634,0.919,1.304,0.372,2.006
			c-0.3-0.007-0.599-0.015-0.898-0.024C644.115,525.02,644.29,524.359,645.068,523.786z M568.021,529.712
			c0.355,1.167,0.325,1.201-0.865,0.986C567.444,530.368,567.733,530.04,568.021,529.712z M535.45,536.133
			c0.354-0.913,0.934-1.609,1.739-2.089c-0.199,2.359,0.441,1.646,1.64,0.827c-0.293,0.89,0.164,1.636,1.372,2.245
			c0.459-0.126,0.916-0.252,1.374-0.378c-0.458,0.126-0.915,0.252-1.374,0.378c-0.352,0.595-0.822,1.048-1.413,1.357
			c-0.207-0.003-0.413-0.008-0.622-0.013c-0.967-0.841-2.043-0.967-3.232-0.378C535.107,537.433,535.278,536.782,535.45,536.133z
			 M532.551,537.32c0.018-0.007,0.035-0.009,0.054-0.015c-0.007,0.019-0.005,0.034-0.01,0.051c0.363-0.077,0.641,0.04,0.832,0.355
			c-0.422,0.313-0.699,0.195-0.832-0.353c-0.014-0.001-0.028,0-0.042,0c-0.04-0.741-0.088-1.483-0.142-2.225
			C532.481,535.86,532.509,536.59,532.551,537.32z M533.261,540.742c-1.679,0.917-2.603,0.659-2.771-0.773
			C531.381,539.133,532.304,539.39,533.261,540.742z M518.119,535.771c0.079-0.022,0.19,0.082,0.284,0.13
			C518.229,536.709,517.829,535.845,518.119,535.771z M515.748,536.348c-0.011-0.49-0.021-0.979-0.03-1.466
			C516.801,535.482,516.801,535.549,515.748,536.348z M517.907,545.217c3.516-0.423,7.031-0.858,10.547-1.301
			c0.11-0.528,0.183-1.067,0.358-1.573c0.573-1.668,1.104,0.926,1.078,1.217c-0.407,0.11-0.814,0.219-1.221,0.329
			c31.483-3.969,62.945-8.796,93.911-15.671c-0.294-0.73,0.224-1.118,1.818-2.048c0.193,0.537,0.237,1.08,0.129,1.631
			c1.427-0.298,18.574-3.796,18.772-2.578c0.268,1.611-12.476,4.517-12.281,4.468c0.076,0.653,0.072,1.322,0.066,1.991
			c-2.111,2.497-6.318,3.898-4.677-0.852c-19.715,4.84-39.827,7.192-59.871,10.32c-8.682,1.354-19.729,3.861-30.374,5.069
			c0.133,0.17,0.234,0.506,0.388,1.046c-0.555-0.234-1.108-0.468-1.661-0.701c0.168-0.102,0.31-0.185,0.438-0.257
			c-7.582,0.812-14.924,0.936-21.008-0.549C515.474,545.567,516.666,545.382,517.907,545.217z M562.369,521.351
			c0.338-0.422,0.733,0.212,0.878,0.387c-0.451,0.409-0.779,0.343-0.98-0.198C562.293,521.465,562.328,521.401,562.369,521.351z
			 M734.066,483.925c1.458,0.891,1.51,1.609,0.16,2.153C732.541,485.249,732.489,484.53,734.066,483.925z M734.47,469.78
			c0.752-1.102,1.379-1.118,1.882-0.054C735.619,470.81,734.991,470.826,734.47,469.78z M750.868,450.638
			c-0.075,0.49-0.149,0.98-0.222,1.47c-0.927,0.057-1.401-0.553-1.825-1.238C749.445,450.27,750.144,450.34,750.868,450.638z
			 M747.063,470.932l-0.045,0.693l-0.557-0.405L747.063,470.932z M739.152,474.804c1.012,0.999-3.155,2.327-3.032,0.503
			C736.766,474.134,737.776,473.966,739.152,474.804z M735.503,466.9c-0.817-0.281-0.801-2.403,1.121-0.647
			C736.251,466.467,735.878,466.686,735.503,466.9z M736.098,461.791c-0.615,0.257-1.27,0.404-1.932,0.435L736.098,461.791z
			 M730.349,450.219c0.089-0.126,0.271-0.244,0.387-0.367h0.001C732.144,450.964,730.005,450.695,730.349,450.219z M340.47,500.481
			l0.086-0.069c0.521,0,1.042-0.007,1.563-0.018c0.103,0.42,0.206,0.839,0.31,1.256C341.469,501.78,340.824,501.373,340.47,500.481z
			 M357.152,506.133l0.436-0.488l0.206,0.592L357.152,506.133z M713.361,471.639c0.12,0.098,0.298,0.18,0.43,0.276
			C713.659,471.819,713.481,471.736,713.361,471.639c-15.584,4.423-36.941,1.473-52.993,0.906c-0.213,2.295-2.542,4.147-3.837,1.673
			c1.507-0.002,2.354-1.509,3.789-1.675c-7.065-0.25-67.261,5.286-67.845,2.134c-0.188-1.019,62.137-4.749,68.588-4.744
			c0.074-0.592,0.364-1.1,1.12-1.431c-0.024,0.489-0.111,0.967-0.26,1.433c15.46,0,31.278-1.786,46.686-0.252
			c-0.254-1.192,0.18-1.885,1.3-2.078c0.729-0.084,1.048,1.937,0.989,2.357C711.266,470.018,716.244,470.822,713.361,471.639z
			 M649.626,451.605c0.356-0.163,0.735-0.276,0.939-0.35C655.141,451.765,643.477,454.415,649.626,451.605z M634.03,447.919
			c-0.479,1.631-0.997,1.634-1.553,0.012C632.996,447.927,633.514,447.924,634.03,447.919z M632.866,463.141
			c-2.699,0.801-2.494-0.588-4.2-1.932C631.634,460.607,631.8,460.684,632.866,463.141z M624.369,458.448
			c1.647,0.171,2.406,1.133,2.44,2.744c-0.83-0.129-1.661-0.259-2.492-0.388C624.334,460.018,624.352,459.233,624.369,458.448z
			 M624.144,461.836c0.172,0.558-0.052,0.753-0.599,0.649C623.743,462.269,623.943,462.053,624.144,461.836z M499.831,472.585
			c0.07-0.22,0.084-0.563,0.227-0.631c0.163-0.076,0.44,0.098,0.668,0.161c-0.284,0.856-0.157,0.686-0.895,0.471V472.585z
			 M477.796,481.952c-1.872,0.217-3.207-1.148-4.839-1.641c-0.04-1.001-0.079-2-0.119-2.998c1.134-0.992,3.385-6.449,4.961-6
			c1.892,0.545,0.118,6.574-0.347,7.115C476.478,479.568,478.066,480.728,477.796,481.952z M571.571,470.339
			c-13.709,1.152-27.267,3.716-40.917,5.418c-3.531,0.44-33.417,1.397-36.607,2.065c-0.099,0.033-0.196,0.066-0.294,0.099
			c0.018-0.032,0.133-0.065,0.294-0.099c0.939-0.318,1.879-0.635,2.817-0.952c-0.022-0.013-0.042-0.027-0.065-0.039
			c0.182-0.138,0.361-0.278,0.543-0.417c0.219,0.037,0.352,0.146,0.398,0.304c24.46-3.883,49.991-6.301,74.691-8.346
			c0.631-0.779,1.26-1.557,1.889-2.336c1.986,0.699,3-0.575,3.962-1.954c0.1,1.296,0.125,2.585-0.267,3.829
			c28.385-2.344,56.748-4.88,85.226-5.667c-0.345-2.59-6.132-5.005-4.346-7.618c1.892-2.766,8.154,5.233,8.361,6.343
			c-0.96,0.286-1.86,0.698-2.697,1.238c12.321-0.336,24.735-0.809,37.061-0.602c-0.284-0.133-0.272-0.345-0.45-0.659
			c0.659-0.817,2.749,0.034,1.598,0.678c1.247,0.022,19.337,0.619,19.18,1.848c-0.446,3.508-65.339,2.07-71.979,2.201
			C623.861,466.187,597.595,468.262,571.571,470.339z M308.541,521.526c0.291-0.853,0.863-1.435,1.7-1.758
			C310.726,521.43,310.644,521.516,308.541,521.526z M515.538,488c0.106-0.415,0.206-0.836,0.309-1.256
			c0.522,0.013,1.043,0.018,1.564,0.018l0.085,0.069C517.142,487.722,516.499,488.129,515.538,488z M527.982,488.432
			c-1.639,3.985-2.696-1.001-2.636-0.989C525.326,487.44,528.577,486.987,527.982,488.432z M532.62,487.537
			c-0.85,0.034-1.697,0.072-2.545,0.118c0.231-0.839,0.773-1.512,1.63-2.015C532.729,485.94,533.033,486.572,532.62,487.537z
			 M636.161,481.155c-0.004,0.008-0.009,0.017-0.012,0.025c-0.007,0-0.014,0-0.014,0v-0.014
			C636.144,481.164,636.152,481.16,636.161,481.155c0.723-1.539,0.504-0.222,0.632-0.316
			C636.606,480.977,636.376,481.054,636.161,481.155z M714.013,491.773l0.104,0.646l-0.596-0.207L714.013,491.773z M387.622,521.519
			l-0.252-0.224l0.306-0.108L387.622,521.519z M437.622,512.127c0.104-1.561,3.296-0.564,3.121-0.116
			C440.395,512.912,437.518,513.677,437.622,512.127z M451.151,512.9l-0.265-0.193l0.284-0.134L451.151,512.9z M236.06,551.461
			l1.932,0.436C237.329,551.865,236.675,551.719,236.06,551.461z M244.801,549.231c-0.295-0.045-0.342-0.18-0.144-0.402
			C244.952,548.875,244.999,549.009,244.801,549.231z M289.945,543.362c0.289,0.328,0.577,0.656,0.866,0.985
			C289.621,544.562,289.591,544.529,289.945,543.362z M406.817,526.549l-0.023-0.328l0.284,0.136L406.817,526.549z M566.247,516.188
			c-0.281-0.439-0.562-0.878-0.841-1.317c0.41-0.531,0.721-1.108,0.932-1.73l-0.067,0.192
			C566.898,514.29,567.505,515.246,566.247,516.188z M626.666,511.836c-0.885-0.547-0.883-1.086,0.004-1.621
			C627.567,510.761,627.565,511.301,626.666,511.836z M679.856,506.93c-16.27,2.507-33.406,1.594-49.817,1.598
			c-1.704,0.671-3.396,1.377-5.129,1.952c1.733-0.575,3.425-1.281,5.129-1.952c-5.212,0.002-59.153,5.733-59.724,2.642
			c0.144,0.79,113.371-11.852,113.896-5.635C682.972,506.52,681.521,506.984,679.856,506.93z M698.916,491.839l-0.045,0.693
			l-0.557-0.405L698.916,491.839z M686.907,486.659c0.594-0.604,1.116-0.437,1.57,0.5c-0.373,0.217-0.746,0.434-1.121,0.647
			C686.729,487.485,686.579,487.103,686.907,486.659z M629.229,495.579c0.896,0.141,1.066,1.525-0.052,0.73
			C629.193,496.065,629.211,495.823,629.229,495.579z M602.241,498.083c0.021,0.057-0.135,0.175-0.208,0.266
			c-0.076-0.087-0.151-0.177-0.227-0.264C601.949,497.727,602.11,497.72,602.241,498.083z M570.654,495.485
			c0.957-0.156,1.073,0.531,1.102,1.248c2.144,0.323,7.772-0.481,5.853,3.485c-0.849,0.062-1.698,0.123-2.549,0.185
			c-0.477,0.358-0.999,0.328-1.563-0.092c-0.469-0.847-1.031-1.623-1.688-2.326c-1.16,0.616-2.017,0.341-2.569-0.822
			C569.711,496.603,570.184,496.043,570.654,495.485z M545.283,496.279c-0.75,2.003-0.75,2.003-2.606,1.298
			C543.527,496.043,543.544,496.035,545.283,496.279z M540.966,500.542c1.995,0.521,3.314,1.858,4.3,3.596
			c-2.981,2.383-3.248-3.215-7.436-1.82C538.993,500.496,539.554,500.172,540.966,500.542z M536.429,497.542
			c-0.999,0.049-1.998,0.099-2.997,0.148C535.021,495.83,535.021,495.83,536.429,497.542z M528.384,499.445
			c0.316-1.889,2.029-1.636,3.385-1.983c0.3,0.093,0.599,0.183,0.898,0.274c-0.089,0.61-0.178,1.219-0.266,1.828
			C531.063,499.526,529.724,499.486,528.384,499.445c-0.19,0.19-0.378,0.38-0.568,0.57
			C528.006,499.825,528.193,499.635,528.384,499.445z M470.346,507.869l-0.056-0.33l0.306,0.106L470.346,507.869z M478.493,515.102
			c0.104-1.561,3.295-0.563,3.121-0.116C481.265,515.885,478.39,516.652,478.493,515.102z M550.72,506.772
			c-0.626,0.049-1.23,0.101-1.847,0.15c0.234,0.269,0.426,0.582,0.554,0.955c-1.614-0.008-2.033-0.069-1.924-0.844
			c-10.953,0.91-21.852,3.099-32.763,4.475c0.093,0.696,0.186,1.391,0.276,2.085c-1.134-0.173-1.43-0.843-0.89-2.008
			c-3.961,0.498-35.704,0.868-36.165,1.702c1.863-3.36,23.735-2.948,26.601-3.193c-0.555-1.125,1.909-1.354,1.77-0.157
			c2.902-0.254,6.098-0.593,9.489-0.957c0.276-3.496,1.889-2.688,3.486-0.37c37.242-3.954,74.579-8.516,112.03-10.166
			c0.25-0.649,0.479-0.659,0.683-0.03c1.107-0.049,1.958-0.178,2.96-0.681c-0.168,0.097-0.337,0.193-0.505,0.289
			c-0.001,0.088-0.003,0.177-0.005,0.266c4.65-0.251,56.731-2.672,56.553-0.579c-0.223,3.3-52.023,3.614-56.485,3.789
			c0.026,0.219,0.052,0.439,0.079,0.658c0.419,0.017,0.841,0.015,1.258,0.052c-0.417-0.037-0.839-0.035-1.26-0.051
			c-0.728,1.411-3.701,2.07-3.755-0.531C604.146,502.408,577.373,504.721,550.72,506.772z M544.175,516.694v-0.002
			c0.05,0.007,0.105,0.005,0.16,0.006c0.195-0.04,0.39-0.063,0.584-0.073c0.515-0.12,1.027-0.342,1.187-0.382
			c0.716-1.361,1.865-1.835,3.342-1.635c-0.084,3.552-2.232,1.9-4.528,2.017c-0.203,0.047-0.402,0.076-0.584,0.073
			c-0.054,0.011-0.108,0.016-0.162,0.029C544.173,516.728,544.175,516.706,544.175,516.694c-0.217,0.323-0.435,0.646-0.652,0.969
			C543.739,517.34,543.958,517.017,544.175,516.694z M542.967,517.809c-0.646-0.35-1.282-0.6-1.903-0.733
			C541.685,517.209,542.32,517.459,542.967,517.809z M441.386,364.217c0.091-0.126,0.271-0.244,0.388-0.367
			C443.184,364.96,441.042,364.694,441.386,364.217z M434.642,366.285c-0.436-0.103-0.844-0.013-1.23,0.192
			C433.798,366.272,434.205,366.182,434.642,366.285z M412.736,361.457c-0.084-0.076-0.168-0.153-0.247-0.224
			c0.065-0.121,0.121-0.22,0.175-0.32C412.935,361.06,412.96,361.242,412.736,361.457z M421.762,367.738
			c0.876,0.251,0.021,1.776-0.489,1.461C420.629,368.804,421.035,367.526,421.762,367.738z M419.279,367.756
			c-0.46-0.804-0.378-1.481,0.244-2.031c0.074-1.692,1.989-4.176,1.744-1.132c-0.13,0.207-0.217,0.43-0.268,0.669
			c-0.166,0.128-0.348,0.224-0.547,0.289C420.617,366.159,420.781,368.636,419.279,367.756z M411.549,376.429
			c0.568-1.783,3.737-2.642,4.339-0.814C415.054,378.845,410.367,380.134,411.549,376.429z M401.699,388.359
			c-0.141-0.153-0.284-0.306-0.425-0.461C402.004,387.42,402.116,387.673,401.699,388.359z M397.174,395.676
			c3.097-1.641,5.523-0.851,4.936,2.541c-1.093,0.2-2.129-0.045-3.107-0.735C398.624,397.45,394.904,396.876,397.174,395.676z
			 M356.603,431.09c-0.272-0.061-0.531-0.176-0.797-0.267c-0.123,0.062-0.247,0.124-0.372,0.186
			c0.118-0.071,0.234-0.141,0.351-0.213C356.368,429.065,358.306,431.465,356.603,431.09z M358.198,432.561
			c0.035,0.067,0.072,0.135,0.117,0.215c-0.054,0.049-0.11,0.099-0.168,0.151C357.998,432.784,358.015,432.661,358.198,432.561z
			 M356.35,425.419c0.385,0.276,0.769,0.552,1.153,0.827c-0.259,1.8-1.459,3.088-1.712,0.624
			C356.219,426.48,356.368,425.981,356.35,425.419c-0.508-0.661-1.078-1.13-1.824-1.061
			C355.272,424.289,355.842,424.759,356.35,425.419z M353.546,429.111c-0.538,0.395-1.109,0.592-1.715,0.592
			C352.337,429.316,352.921,429.151,353.546,429.111z M344.218,436.31c-0.261-0.14-0.534-0.198-0.829-0.129
			C343.684,436.112,343.957,436.17,344.218,436.31z M336.551,446.34c-0.376-0.067-0.755-0.136-1.131-0.205
			C335.202,444.268,336.459,445.719,336.551,446.34z M319.763,461.964c-0.248-0.049,5.444,1.275,2.094,2.541
			c-0.948,0.358-1.915,0.664-2.64,1.43C319.219,463.979,319.154,463.861,319.763,461.964z M316.793,460.499h0.002
			c0.009-0.029,0.019-0.057,0.028-0.086c-0.01,0.029-0.02,0.057-0.028,0.086c-0.109,0.214-0.142,0.42-0.059,0.621
			C316.653,460.92,316.685,460.713,316.793,460.499z M279.283,503.219c-0.639,0.266-1.234,0.644-1.873,0.913
			C278.049,503.863,278.645,503.485,279.283,503.219z M264.379,510.179c0.757,0.232,1.507,0.493,2.271,0.688
			C265.886,510.672,265.136,510.412,264.379,510.179l-0.064,0.062L264.379,510.179z M264.272,510.284l-0.145-0.24L264.272,510.284z
			 M263.249,515.399c-0.049-0.511-0.1-1.022-0.15-1.535C263.977,514.294,264.102,514.799,263.249,515.399z M246.536,525.888
			c1.23-1.697,2.192-1.498,3.402,0.083c-0.271,0.429-0.54,0.861-0.81,1.293c-0.236,0.079-0.478,0.145-0.721,0.198v0.002
			c-0.624-0.523-1.248-1.046-1.872-1.573c-0.848,0.197-1.697,0.397-2.544,0.597C244.839,526.288,245.689,526.088,246.536,525.888z
			 M220.344,553.254c1.104,0.575,1.1,1.196-0.012,1.862C219.184,554.692,219.186,554.071,220.344,553.254z M339.948,549.891
			c-0.277,0.044-0.407-0.069-0.385-0.34C339.878,549.295,340.006,549.408,339.948,549.891z M342.221,549.998
			c-1.055-0.799-1.053-0.868,0.029-1.468C342.24,549.019,342.23,549.509,342.221,549.998z M504.637,526.801
			c0.96-0.508,2.642,1.55,0.766,1.85C504.628,528.774,503.433,527.44,504.637,526.801z M417.858,530.363
			c0.472,0.557,0.722,1.182,0.754,1.875C417.134,531.706,417.112,531.654,417.858,530.363z M351.772,541.07
			c0.208-1.32,2.315-0.824,2.045,0.414C353.56,542.15,351.433,543.209,351.772,541.07z M258.435,552.733
			c0.163-0.165,0.347-0.214,0.552-0.143c0.335,0.755,0.491,0.602-0.331,1.065C258.38,553.356,258.308,553.05,258.435,552.733z
			 M180.179,588.709c-1.357-0.353-1.638-1.026-0.841-2.018C180.355,587.111,180.636,587.784,180.179,588.709z M223.65,594.763
			c1.955,0.054-8.888-5.243-11.054-6.172c0.019,0.116,0.049,0.225,0.059,0.348c-0.475-0.18-0.801-0.458-1.055-0.784
			c-0.933-0.404-15.375-6.716-15.519-3.955c-0.138,2.62,23.468,9.226,26.668,10.364c-12.143-2.672-25.578-5.099-37.955-5.598
			c9.069-8.178,18.157-16.334,27.258-24.475v0.124c2.246-0.262,4.604-0.538,7.096-0.831c34.04-4.13,67.72-11.042,101.648-15.852
			c-0.006-0.081-0.013-0.16-0.02-0.24c0.092,0.069,0.184,0.136,0.275,0.203c23.612-3.345,47.117-7.497,70.762-10.594
			c-0.528,0.007-2.234-0.052-2.274-0.896c-0.286-6.569,13.941-2.878,6.226,0.378c1.505-0.204,2.96-0.399,4.369-0.589
			c-0.249-0.663,1.121-1.478,1.2-0.168c17.4-2.445,34.764-5.044,52.185-7.346c8.8-1.162,17.421-1.993,26.27-2.59
			c3.568-0.242,18.111-3.609,20.596-1.525c-0.989-0.826-33.602,5.782-37.533,6.341c-0.242,0.865-0.72,1.596-1.706,2.04
			c-0.641,3.585-5.248,1.631-2.39-0.086c0.229-0.582,0.538-1.069,0.9-1.497c-19.681,2.812-38.972,3.147-58.669,5.112
			c-0.147,0.116-0.313,0.131-0.498,0.049c-25.213,2.553-50.104,7.574-74.947,12.444c-0.047,0.678-0.091,1.357-0.13,2.035
			c0,0-0.026,0-0.042,0c-0.132,0.55-0.41,0.668-0.832,0.355c0.191-0.315,0.469-0.434,0.832-0.355
			c-0.005-0.018-0.001-0.032-0.01-0.052c0.019,0.008,0.035,0.01,0.054,0.017c0.039-0.668,0.071-1.333,0.128-2
			c-1.039,0.204-2.041,0.4-3.059,0.599c0.103,0.738,0.285,1.458,0.548,2.163c-1.188-0.588-2.266-0.462-3.232,0.379
			c-0.206,0.003-0.413,0.008-0.62,0.014c-0.591-0.31-1.063-0.762-1.414-1.357c-0.185-0.052-0.372-0.103-0.557-0.155
			c-1.892,0.38-3.735,0.748-5.557,1.113c1.772-0.397,3.545-0.792,5.321-1.177c-0.03-0.008-0.061-0.017-0.09-0.025
			c-35.044,4.784-69.682,12.643-104.831,16.733v3.152c15.443-2.803,32.82-8.991,48.613-7.512
			c-16.358,3.121-32.068,7.388-48.613,9.656v1.424c2.972-0.279,5.957-0.459,8.934-0.674c-4.633,1.419-9.459,2.74-13.827,4.889
			c-0.895-0.124-1.731,0.103-2.512,0.678c-0.032,0.397,28.743,16.835,31.555,19.291C231.984,597.117,227.916,595.663,223.65,594.763
			z M297.068,617.055c-3.398-1.708-7.022-3.103-10.629-4.29c0.653-0.076,1.402-0.15,2.214-0.279
			c12.041-1.988,23.973-7.801,36.101-9.118C315.458,607.737,306.005,611.978,297.068,617.055z M534.316,602.534
			c-2.325,0.417-2.765-0.059-3.824-2.048c1.492,0,2.967-0.621,4.134,0.792C534.523,601.698,534.421,602.119,534.316,602.534z
			 M564.158,592.18v-0.003c-0.431,0.049-0.861,0.097-1.292,0.148c0.226,1.54-0.241,2.383-1.404,2.528
			c-1.184-0.821-1.13-2.016,0.162-3.587c0.343-0.617,0.686-1.234,1.027-1.853c-0.012-0.01-0.023-0.023-0.034-0.035
			c0.018-0.002,0.039-0.004,0.06-0.005c-0.009,0.015-0.016,0.029-0.016,0.029c0.808,0.723,1.311,1.643,1.497,2.777l0.005-0.002
			L564.158,592.18z M569.979,588.198c-0.044-0.091-0.086-0.182-0.13-0.271c0.089-0.042,0.2-0.138,0.263-0.113
			C570.315,588.024,570.269,588.152,569.979,588.198z M612.037,572.94c-0.154-0.146-0.308-0.293-0.463-0.441
			C612.303,571.936,612.412,572.201,612.037,572.94z M652.712,561.378c0.163,1.727-0.52,2.418-2.05,2.068
			c-1.646-0.479-1.803-1.816-1.651-3.166c0.177-1.596,4.108,0.22,4.139,0.229c0.683-1.223,1.428-1.502,2.236-0.839
			C655.269,561.763,654.379,562.331,652.712,561.378z M722.216,552.284c-0.268-0.022-0.385-0.125-0.347-0.308
			c0.027-0.099,0.109-0.21,0.153-0.311C722.537,551.522,722.302,552.077,722.216,552.284z M857.142,576.411
			c-1.302-0.748-2.053-1.118-2.681-1.098C855.089,575.292,855.842,575.662,857.142,576.411l0.241,0.012L857.142,576.411z"/>
		<path style="fill:#1A1A1A;" d="M846.988,454.53c0.148,0.068,0.285,0.152,0.421,0.237
			C847.274,454.682,847.134,454.603,846.988,454.53z"/>
		<path style="fill:#1A1A1A;" d="M544.919,516.626c-0.194,0.01-0.389,0.034-0.584,0.073
			C544.517,516.701,544.716,516.673,544.919,516.626z"/>
		<path style="fill:#1A1A1A;" d="M860.26,406.437c0.624-1.099,1.225-2.211,1.813-3.331
			C861.216,403.172,860.611,404.28,860.26,406.437z"/>
		<path style="fill:#1A1A1A;" d="M494.047,477.822c-0.161,0.034-0.276,0.067-0.294,0.099
			C493.851,477.888,493.948,477.855,494.047,477.822z"/>
		<path style="fill:#1A1A1A;" d="M317.767,550.765c0.251-0.104,0.46-0.24,0.645-0.393c-0.407,0.083-0.803,0.161-1.202,0.241
			C317.396,550.664,317.58,550.715,317.767,550.765z"/>
		<path style="fill:#1A1A1A;" d="M316.975,550.548c0.156-0.035,0.314-0.071,0.473-0.106c-0.191,0.027-0.373,0.056-0.564,0.081
			C316.914,550.531,316.944,550.54,316.975,550.548z"/>
		<path style="fill:#1A1A1A;" d="M292.286,598.479c0.163,0.526,0.471,0.982,1.009,1.345c0.41,0.276,0.528,0.663,0.542,1.078
			c6.896-3.256,15.738-5.85,23.069-7.847c-0.281-0.705-0.491-1.428-0.631-2.171C308.603,592.735,299.452,595.121,292.286,598.479z"
			/>
		<path style="fill:#1A1A1A;" d="M584.88,447.646c-0.337-0.42-0.675-0.841-1.013-1.26c-6.086,0.829-12.224,1.534-18.274,2.605
			c0.522,0.296,0.974,0.693,1.204,1.394c-1.176,3.422-2.895,0.948-5.864,0.826c0.003-0.452,0.009-0.905,0.012-1.357
			c-1.473,0.281-2.948,0.555-4.424,0.823c0.912-0.052,1.819-0.156,2.727-0.306c-0.004,0.286-0.007,0.573-0.011,0.859
			c-1.351-0.197-6.606,0.109-5.899,3.087c11.123-1.007,22.131-3.074,33.232-4.317C586.694,448.862,586.131,448.078,584.88,447.646z"
			/>
		<path style="fill:#1A1A1A;" d="M311.568,529.419c9.806-1.74,19.588-3.609,29.388-5.38c-0.974-0.291-1.946-0.585-2.918-0.876
			c0.516-1.021,1.221-1.88,2.11-2.578c-10.741,2.129-21.529,3.809-32.25,6.068c0.216,0.308,0.43,0.615,0.643,0.923
			c-0.213-0.308-0.427-0.616-0.643-0.923c-5.265,1.11-10.559,1.994-15.888,2.733c-0.098,0.151-0.193,0.301-0.29,0.452
			c-0.159-0.12-0.289-0.239-0.392-0.358c-14.338,1.974-28.52,5.025-42.78,7.494c-0.824,0.72-1.654,1.435-2.487,2.146
			c2.746-0.459,18.648-3.605,19.433-0.74c0.511,1.81-22.229,4.61-24.459,4.996c-1.715,1.455-3.415,2.933-5.15,4.366
			c27.099-3.121,54.314-8.728,81.292-12.981c-1.063-1.25-2.28-1.592-3.821-0.331c-2.397,1.959-0.278-2.173,0.355-2.754
			c-2.356,0.41-33.4,5.484-33.445,4.407c-0.103-2.174,25.375-5.62,28.371-6.146c-0.085-0.555-0.124-1.115-0.117-1.677
			C309.81,528.084,310.849,528.424,311.568,529.419z M295.701,535.19c-0.119,0.158-0.229,0.435-0.361,0.445
			c-0.198,0.015-0.412-0.156-0.62-0.247C294.955,535.104,295.447,534.507,295.701,535.19z"/>
		<path style="fill:#1A1A1A;" d="M184.357,558.242c2.054,0.849,4.588-0.59,5.843,2.343c0.837,0.039,1.675,0.087,2.511,0.15
			c-0.256-0.118-0.431-0.335-0.48-0.671c0.732-0.713,1.619-1.059,2.664-1.042C191.374,558.445,187.901,558.467,184.357,558.242z"/>
		<path style="fill:#1A1A1A;" d="M181.033,557.986c-19.377-1.209-40.251,1.919-59.217,5.632
			c-4.359,0.852-57.512,16.211-55.185,20.824c0.438,0.868,43.23-15.53,46.889-16.581c23.559-6.767,47.562-8.393,71.84-7.369
			c-0.011-0.03-0.019-0.059-0.029-0.089C183.654,559.987,182.224,559.182,181.033,557.986z"/>
		<path style="fill:#1A1A1A;" d="M193.369,560.785c0.105,0.005,0.266,0.012,0.507,0.024c0.368-0.003,0.738,0.015,1.106,0.02
			c0.085-0.001,0.168-0.013,0.252-0.017C194.402,560.817,193.67,560.796,193.369,560.785z"/>
		<path style="fill:#1A1A1A;" d="M193.369,560.785C193.169,560.776,193.189,560.779,193.369,560.785L193.369,560.785z"/>
		<path style="fill:#1A1A1A;" d="M195.234,560.813c1.832-0.009,4.141-0.142,3.351-0.787
			C197.514,560.507,196.395,560.765,195.234,560.813z"/>
		<path style="fill:#1A1A1A;" d="M181.324,568.044c-0.165,0.878-0.649,1.401-1.455,1.571c-0.559-0.012-1.118-0.023-1.678-0.034
			c0.194-0.501,0.376-1.007,0.585-1.502c-8.938-0.315-17.612,0.678-26.477,1.349c-0.254,0.429-0.652,0.459-1.194,0.091
			c-2.877,0.217-5.751,0.51-8.628,0.712c-9.083,0.948-19.88,1.273-28.64,4.139c0.305,0.404,0.507,0.888,0.759,1.357
			c-0.237,0.809-0.703,1.414-1.283,1.897c15.225-6.125,34.913-6.644,51.128-7.502c0.296-0.864,1.931-1.016,2.03-0.109
			c2.064-0.111,22.138,1.325,22.336-0.671C188.948,567.927,182.392,568.004,181.324,568.044z"/>
		<path style="fill:#1A1A1A;" d="M96.49,580.285c0.299,0.922,12.436-1.431,14.56-1.912c-0.254-0.13-0.482-0.303-0.527-0.458
			c-0.248-0.812,0.189-1.88,0.913-2.686C109.671,575.802,95.701,577.855,96.49,580.285z"/>
		<path style="fill:#1A1A1A;" d="M170.061,581.765c-23.963-2.462-52.282,4.092-75.142,10.4c0.601,1.041,0.51,1.853-0.271,2.435
			c-0.922-0.153-1.366-0.787-1.331-1.9c-1.575,0.862-3.227,1.527-4.956,1.99c-2.304,0.577-14.289,4.288-13.389,6.311
			c0.781,1.759,34.612-10.119,38.582-11.111c16.315-4.07,32.561-5.738,49.276-5.938c1.785-0.77,5.561-0.207,7.553-0.34
			C169.954,583.149,169.847,582.534,170.061,581.765z"/>
		<path style="fill:#1A1A1A;" d="M172.153,582.096c0.337,0.269,0.654,0.56,0.952,0.873
			C173.385,582.502,173.066,582.211,172.153,582.096z"/>
	</g>
</g>
</svg>
